<?xml version="1.0" encoding="UTF-8" ?>
<!DOCTYPE svg PUBLIC "-//W3C//DTD SVG 1.1//EN" "http://www.w3.org/Graphics/SVG/1.1/DTD/svg11.dtd">
<svg width="766pt" height="397pt" viewBox="0 0 766 397" version="1.1" xmlns="http://www.w3.org/2000/svg">
<path fill="#fefefe" d=" M 0.00 0.00 L 279.01 0.00 C 261.06 1.03 243.02 3.76 226.16 10.22 C 188.76 23.47 156.90 50.92 137.39 85.37 C 136.73 70.37 129.11 55.89 117.11 46.87 C 99.02 32.57 71.24 32.85 53.49 47.57 C 41.86 56.75 34.44 71.13 34.12 85.98 C 33.47 98.83 37.90 111.87 46.35 121.57 C 55.10 132.03 68.19 138.69 81.79 139.63 C 96.13 140.89 110.64 135.54 121.21 125.86 C 115.53 148.10 114.45 171.55 118.19 194.20 C 84.03 206.32 51.22 223.73 24.60 248.60 C 12.98 259.71 2.98 273.37 0.00 289.48 L 0.00 0.00 Z" />
<path fill="#c8c8c8" d=" M 279.01 0.00 L 288.50 0.00 C 305.61 1.30 322.97 3.53 338.99 9.98 C 333.18 11.86 327.54 14.24 322.17 17.17 C 316.56 14.32 310.13 14.16 304.05 13.05 C 277.93 9.46 250.89 12.67 226.36 22.31 C 195.19 34.51 168.07 57.02 150.66 85.64 C 126.11 124.56 120.78 174.71 135.89 218.10 C 139.70 229.08 144.54 239.76 150.90 249.51 C 148.77 253.56 147.08 257.83 145.25 262.02 C 137.93 251.22 131.81 239.63 127.06 227.48 C 111.73 232.86 97.11 240.07 83.02 248.11 C 66.50 257.95 50.59 269.26 37.64 283.58 C 30.24 292.11 23.27 302.35 23.14 314.05 C 23.02 323.64 29.48 331.76 36.79 337.26 C 50.22 347.53 67.19 352.59 84.00 352.53 C 99.46 352.61 114.75 348.88 128.97 342.98 C 130.32 342.46 131.48 341.58 132.56 340.64 C 133.51 344.58 135.20 348.32 137.44 351.69 C 115.01 362.01 89.44 366.90 64.99 362.10 C 49.79 358.99 35.17 352.00 23.92 341.22 C 19.07 336.43 15.14 330.59 13.20 324.02 C 12.34 320.30 9.11 317.98 7.06 314.96 C 3.32 310.02 1.45 304.01 0.00 298.07 L 0.00 289.48 C 2.98 273.37 12.98 259.71 24.60 248.60 C 51.22 223.73 84.03 206.32 118.19 194.20 C 114.45 171.55 115.53 148.10 121.21 125.86 C 110.64 135.54 96.13 140.89 81.79 139.63 C 68.19 138.69 55.10 132.03 46.35 121.57 C 37.90 111.87 33.47 98.83 34.12 85.98 C 34.44 71.13 41.86 56.75 53.49 47.57 C 71.24 32.85 99.02 32.57 117.11 46.87 C 129.11 55.89 136.73 70.37 137.39 85.37 C 156.90 50.92 188.76 23.47 226.16 10.22 C 243.02 3.76 261.06 1.03 279.01 0.00 Z" />
<path fill="#fefefe" d=" M 288.50 0.00 L 393.74 0.00 C 375.13 0.59 356.52 3.56 338.99 9.98 C 322.97 3.53 305.61 1.30 288.50 0.00 Z" />
<path fill="#7d7d7d" d=" M 393.74 0.00 L 398.42 0.00 C 423.38 0.80 448.34 6.43 470.61 17.93 C 465.88 20.01 461.56 22.85 457.14 25.50 L 458.39 24.74 C 423.62 9.59 383.20 7.23 347.22 19.55 C 308.77 31.61 275.80 59.93 257.50 95.77 C 268.16 106.90 273.35 122.97 271.16 138.23 C 269.06 156.06 256.72 171.81 240.42 179.05 C 242.94 214.81 258.38 249.47 283.33 275.21 C 293.40 286.23 305.53 295.33 318.47 302.75 C 318.40 301.77 318.25 299.81 318.17 298.82 C 318.76 304.75 318.96 310.72 319.87 316.61 C 311.07 312.15 302.60 306.92 294.80 300.86 C 291.71 308.46 288.10 315.87 283.81 322.87 C 281.44 326.88 278.88 330.78 276.03 334.48 C 260.50 355.06 238.78 372.23 213.02 377.30 C 198.82 379.91 183.11 380.27 170.18 372.92 C 166.89 371.30 164.60 367.84 160.77 367.41 C 151.36 365.39 142.77 359.73 137.44 351.69 C 135.20 348.32 133.51 344.58 132.56 340.64 C 129.09 328.72 129.94 316.04 132.06 303.95 C 134.92 289.54 139.52 275.53 145.25 262.02 C 147.08 257.83 148.77 253.56 150.90 249.51 C 161.30 228.95 173.42 209.07 188.81 191.83 C 192.91 187.78 196.66 183.30 201.36 179.90 C 190.43 175.34 180.70 167.49 174.95 157.03 C 169.19 147.16 167.02 135.33 168.62 124.03 C 170.82 107.64 181.47 92.62 196.30 85.24 C 212.49 76.65 233.05 78.00 248.35 87.94 C 265.07 57.62 290.91 32.24 322.17 17.17 C 327.54 14.24 333.18 11.86 338.99 9.98 C 356.52 3.56 375.13 0.59 393.74 0.00 Z" />
<path fill="#fefefe" d=" M 398.42 0.00 L 543.84 0.00 C 518.51 0.58 493.20 6.32 470.61 17.93 C 448.34 6.43 423.38 0.80 398.42 0.00 Z" />
<path fill="#040404" d=" M 543.84 0.00 L 547.42 0.00 C 567.06 0.56 586.74 3.82 605.07 11.05 C 640.53 24.32 671.01 50.30 690.03 83.02 C 702.18 103.43 709.35 126.55 712.13 150.09 C 721.32 158.61 727.52 170.51 728.21 183.10 C 729.91 201.90 719.34 221.12 702.55 229.72 C 701.59 230.26 700.49 230.81 700.11 231.94 C 696.31 239.93 692.74 248.07 687.79 255.45 C 709.08 259.50 730.21 267.84 746.22 282.80 C 755.77 292.02 763.85 303.76 765.70 317.16 C 766.47 322.22 765.31 327.21 764.11 332.09 C 765.86 342.51 762.05 353.28 754.86 360.88 C 745.25 371.15 731.98 377.09 718.64 380.84 C 704.50 384.69 689.72 386.05 675.10 385.25 C 664.40 384.58 653.84 382.68 643.23 381.29 C 623.55 378.64 603.99 375.24 584.48 371.57 C 578.74 370.19 573.00 368.75 567.22 367.51 C 567.00 367.15 566.56 366.42 566.35 366.05 C 564.43 362.63 562.50 359.22 560.81 355.69 C 559.30 352.20 557.92 348.64 557.04 344.94 C 556.15 341.44 555.72 337.86 555.44 334.28 C 531.70 335.83 507.61 332.12 485.44 323.46 C 478.09 321.12 471.67 316.56 464.11 314.77 L 469.59 318.00 C 468.03 317.70 466.46 317.45 464.90 317.24 C 462.28 325.99 459.25 334.67 455.00 342.79 C 453.21 346.31 451.18 349.70 448.88 352.91 C 446.71 356.08 444.27 359.04 441.85 362.00 C 438.87 365.37 435.64 368.54 432.15 371.38 C 425.30 376.62 417.97 381.43 409.80 384.34 C 403.77 386.44 397.36 387.78 390.95 387.06 C 388.54 386.90 386.07 385.80 383.73 386.85 C 374.80 389.83 364.72 390.00 356.04 386.11 C 349.95 383.47 344.82 379.05 340.61 373.99 C 337.05 369.79 334.31 364.98 331.79 360.11 C 325.79 347.00 322.53 332.81 320.22 318.63 C 320.14 318.12 319.96 317.11 319.87 316.61 C 318.96 310.72 318.76 304.75 318.17 298.82 C 317.91 290.14 317.56 281.45 317.89 272.77 C 318.84 249.40 321.94 225.49 332.39 204.28 C 337.38 201.68 342.20 198.72 347.46 196.67 C 350.03 195.63 352.72 194.78 354.96 193.09 C 353.49 174.23 363.65 155.33 379.74 145.57 C 386.03 96.69 415.15 51.33 457.14 25.50 C 461.56 22.85 465.88 20.01 470.61 17.93 C 493.20 6.32 518.51 0.58 543.84 0.00 Z" />
<path fill="#fefefe" d=" M 547.42 0.00 L 766.00 0.00 L 766.00 397.00 L 419.20 397.00 C 432.53 396.23 445.96 395.61 459.04 392.75 C 469.64 390.80 480.23 387.95 489.74 382.78 C 513.16 384.12 536.89 384.02 559.92 379.09 C 568.34 377.52 576.73 375.26 584.48 371.57 C 603.99 375.24 623.55 378.64 643.23 381.29 C 653.84 382.68 664.40 384.58 675.10 385.25 C 689.72 386.05 704.50 384.69 718.64 380.84 C 731.98 377.09 745.25 371.15 754.86 360.88 C 762.05 353.28 765.86 342.51 764.11 332.09 C 765.31 327.21 766.47 322.22 765.70 317.16 C 763.85 303.76 755.77 292.02 746.22 282.80 C 730.21 267.84 709.08 259.50 687.79 255.45 C 692.74 248.07 696.31 239.93 700.11 231.94 C 700.49 230.81 701.59 230.26 702.55 229.72 C 719.34 221.12 729.91 201.90 728.21 183.10 C 727.52 170.51 721.32 158.61 712.13 150.09 C 709.35 126.55 702.18 103.43 690.03 83.02 C 671.01 50.30 640.53 24.32 605.07 11.05 C 586.74 3.82 567.06 0.56 547.42 0.00 Z" />
<path fill="#fefefe" d=" M 226.36 22.31 C 250.89 12.67 277.93 9.46 304.05 13.05 C 310.13 14.16 316.56 14.32 322.17 17.17 C 290.91 32.24 265.07 57.62 248.35 87.94 C 233.05 78.00 212.49 76.65 196.30 85.24 C 181.47 92.62 170.82 107.64 168.62 124.03 C 167.02 135.33 169.19 147.16 174.95 157.03 C 180.70 167.49 190.43 175.34 201.36 179.90 C 196.66 183.30 192.91 187.78 188.81 191.83 C 173.42 209.07 161.30 228.95 150.90 249.51 C 144.54 239.76 139.70 229.08 135.89 218.10 C 120.78 174.71 126.11 124.56 150.66 85.64 C 168.07 57.02 195.19 34.51 226.36 22.31 Z" />
<path fill="#fefefe" d=" M 347.22 19.55 C 383.20 7.23 423.62 9.59 458.39 24.74 L 457.14 25.50 C 415.15 51.33 386.03 96.69 379.74 145.57 C 363.65 155.33 353.49 174.23 354.96 193.09 C 352.72 194.78 350.03 195.63 347.46 196.67 C 342.20 198.72 337.38 201.68 332.39 204.28 C 321.94 225.49 318.84 249.40 317.89 272.77 C 317.31 278.02 317.24 283.30 317.21 288.58 C 305.48 285.30 294.07 280.97 283.33 275.21 C 258.38 249.47 242.94 214.81 240.42 179.05 C 256.72 171.81 269.06 156.06 271.16 138.23 C 273.35 122.97 268.16 106.90 257.50 95.77 C 275.80 59.93 308.77 31.61 347.22 19.55 Z" />
<path fill="#fefefe" d=" M 453.75 41.76 C 487.19 16.87 530.98 6.72 572.00 13.94 C 602.10 19.05 630.89 33.18 652.69 54.63 C 663.48 75.83 671.04 98.97 672.11 122.87 C 668.86 118.35 663.08 114.54 657.38 116.69 C 650.70 119.30 647.11 126.19 644.61 132.50 C 639.13 147.95 639.01 165.19 643.46 180.91 C 645.93 188.54 649.70 197.02 657.63 200.27 C 641.80 235.26 612.80 263.98 577.85 279.81 C 538.37 297.94 491.46 299.11 451.18 282.79 C 445.36 280.83 440.25 277.18 434.31 275.60 C 434.15 275.56 433.85 275.48 433.69 275.44 C 423.71 265.54 415.71 253.89 408.69 241.76 C 420.18 241.25 431.61 237.00 440.24 229.31 C 458.70 214.28 463.96 185.68 451.98 165.10 C 441.23 144.20 414.80 133.16 392.39 140.22 C 399.10 101.12 421.63 65.03 453.75 41.76 Z" />
<path fill="#fefefe" d=" M 78.30 48.40 C 88.34 46.56 99.18 48.51 107.65 54.31 C 114.56 59.10 120.34 65.75 123.23 73.72 C 127.49 84.89 126.49 98.01 120.38 108.32 C 114.06 119.10 102.51 126.88 89.97 127.91 C 71.69 130.34 52.73 118.05 47.41 100.41 C 42.95 87.03 46.24 71.33 55.89 61.00 C 61.70 54.46 69.72 50.02 78.30 48.40 Z" />
<path fill="#c8c8c8" d=" M 652.69 54.63 C 680.86 80.59 698.19 117.81 700.85 155.98 C 702.41 176.90 699.71 198.16 692.88 218.01 C 681.05 252.84 656.32 283.08 624.57 301.63 C 590.51 322.01 548.43 328.16 509.87 318.99 C 483.21 312.76 458.28 299.28 438.52 280.32 C 437.10 278.80 434.84 277.72 434.31 275.60 C 440.25 277.18 445.36 280.83 451.18 282.79 C 491.46 299.11 538.37 297.94 577.85 279.81 C 612.80 263.98 641.80 235.26 657.63 200.27 C 665.27 202.55 671.63 195.93 674.74 189.71 C 682.00 175.10 682.78 157.94 679.87 142.10 C 678.48 135.30 676.21 128.54 672.11 122.87 C 671.04 98.97 663.48 75.83 652.69 54.63 Z" />
<path fill="#fefefe" d=" M 195.37 99.42 C 208.26 89.12 227.55 88.39 241.40 97.24 C 241.47 103.41 241.99 109.72 240.09 115.70 C 235.06 138.75 213.78 157.28 190.17 158.55 C 182.71 150.40 178.75 139.12 179.80 128.09 C 180.52 116.88 186.44 106.18 195.37 99.42 Z" />
<path fill="#c8c8c8" d=" M 241.40 97.24 C 250.34 102.62 256.76 111.83 259.19 121.93 C 261.94 133.84 259.29 147.04 251.42 156.52 C 244.40 165.55 233.36 171.10 221.97 171.71 C 210.17 172.30 197.94 167.55 190.17 158.55 C 213.78 157.28 235.06 138.75 240.09 115.70 C 241.99 109.72 241.47 103.41 241.40 97.24 Z" />
<path fill="#040404" d=" M 606.15 110.10 C 612.84 108.71 618.62 113.79 622.06 118.99 C 629.43 130.50 631.59 144.51 631.90 157.94 C 631.71 171.53 629.64 185.71 622.31 197.42 C 619.28 202.01 614.85 206.47 609.07 206.89 C 602.76 207.31 597.62 202.58 594.40 197.64 C 587.10 186.20 584.94 172.29 584.68 158.95 C 584.80 145.23 586.92 130.91 594.40 119.13 C 597.20 115.02 601.02 110.96 606.15 110.10 Z" />
<path fill="#040404" d=" M 657.38 116.69 C 663.08 114.54 668.86 118.35 672.11 122.87 C 676.21 128.54 678.48 135.30 679.87 142.10 C 682.78 157.94 682.00 175.10 674.74 189.71 C 671.63 195.93 665.27 202.55 657.63 200.27 C 649.70 197.02 645.93 188.54 643.46 180.91 C 639.01 165.19 639.13 147.95 644.61 132.50 C 647.11 126.19 650.70 119.30 657.38 116.69 Z" />
<path fill="#fefefe" d=" M 375.96 163.97 C 388.03 148.98 411.32 145.28 427.54 155.56 L 427.55 155.98 C 428.59 170.11 424.86 184.77 415.83 195.86 C 406.40 207.89 391.79 215.74 376.49 216.61 C 363.35 202.37 363.04 178.43 375.96 163.97 Z" />
<path fill="#c8c8c8" d=" M 427.55 155.98 C 434.52 159.40 439.67 166.05 443.09 172.94 C 448.25 184.00 448.08 197.45 442.41 208.28 C 437.50 218.06 428.36 225.63 417.82 228.57 C 403.27 233.06 386.43 228.10 376.49 216.61 C 391.79 215.74 406.40 207.89 415.83 195.86 C 424.86 184.77 428.59 170.11 427.55 155.98 Z" />
<path fill="#c8c8c8" d=" M 712.91 169.99 C 719.79 183.53 717.34 201.15 706.76 212.11 C 710.79 198.44 712.49 184.20 712.91 169.99 Z" />
<path fill="#fefefe" d=" M 212.31 186.09 C 216.93 185.64 221.59 186.16 226.18 186.77 C 211.65 197.34 200.63 211.87 190.61 226.60 C 179.88 242.61 171.22 259.90 163.48 277.52 C 157.44 294.83 151.58 312.55 150.96 331.04 C 150.07 338.31 151.88 345.49 153.90 352.41 C 147.12 347.59 143.77 339.45 142.29 331.54 C 140.82 319.93 142.42 308.11 145.53 296.90 C 148.11 285.82 152.11 275.10 156.94 264.81 C 162.27 250.96 169.90 238.14 177.68 225.54 C 187.46 211.03 197.93 196.38 212.31 186.09 Z" />
<path fill="#fefefe" d=" M 208.29 221.45 C 215.16 212.81 222.21 204.07 231.16 197.49 C 237.72 234.26 257.23 268.44 285.25 293.09 C 281.79 302.75 277.08 311.96 271.53 320.59 C 268.10 325.47 264.42 330.16 260.80 334.90 C 247.07 350.78 228.52 363.43 207.45 366.59 C 197.19 368.03 186.04 368.26 176.63 363.31 C 169.72 359.71 165.34 352.53 163.82 345.04 C 161.83 337.45 163.22 329.62 163.38 321.92 C 164.13 313.66 166.70 305.73 168.76 297.75 C 173.52 284.85 178.00 271.77 184.64 259.68 C 191.39 246.28 199.42 233.55 208.29 221.45 Z" />
<path fill="#fefefe" d=" M 90.82 217.82 C 100.53 213.44 110.25 208.71 120.55 205.96 C 121.39 209.54 122.48 213.06 123.09 216.70 C 100.85 224.83 79.61 235.75 60.12 249.20 C 40.81 263.06 21.02 279.38 13.13 302.66 C 10.15 294.76 11.81 285.96 15.62 278.66 C 22.48 265.20 34.00 254.99 45.52 245.58 C 59.61 234.78 74.88 225.60 90.82 217.82 Z" />
<path fill="#fefefe" d=" M 341.41 212.54 C 343.63 211.36 345.85 210.16 348.05 208.95 C 342.04 228.37 340.27 248.81 339.81 269.05 C 339.76 283.76 340.51 298.51 342.79 313.06 C 338.66 310.87 334.59 308.56 330.44 306.42 C 328.80 291.70 329.00 276.83 329.99 262.07 C 331.64 245.19 334.00 227.98 341.41 212.54 Z" />
<path fill="#fefefe" d=" M 359.35 211.10 C 364.87 223.69 375.67 233.78 388.54 238.56 C 390.84 239.53 393.80 239.49 395.61 241.30 C 406.77 263.94 423.10 284.06 443.07 299.51 C 436.16 316.36 423.44 330.78 407.30 339.29 C 397.44 344.60 385.98 348.43 374.68 346.32 C 369.89 345.55 365.63 343.16 361.26 341.21 C 355.32 323.74 352.85 305.31 351.72 286.96 C 350.64 261.51 352.03 235.63 359.35 211.10 Z" />
<path fill="#fefefe" d=" M 83.02 248.11 C 97.11 240.07 111.73 232.86 127.06 227.48 C 131.81 239.63 137.93 251.22 145.25 262.02 C 139.52 275.53 134.92 289.54 132.06 303.95 C 129.94 316.04 129.09 328.72 132.56 340.64 C 131.48 341.58 130.32 342.46 128.97 342.98 C 114.75 348.88 99.46 352.61 84.00 352.53 C 67.19 352.59 50.22 347.53 36.79 337.26 C 29.48 331.76 23.02 323.64 23.14 314.05 C 23.27 302.35 30.24 292.11 37.64 283.58 C 50.59 269.26 66.50 257.95 83.02 248.11 Z" />
<path fill="#c8c8c8" d=" M 681.39 265.12 C 701.67 268.49 722.08 275.54 737.66 289.39 C 745.88 297.03 753.20 306.69 755.03 318.02 C 756.41 326.56 751.65 334.87 744.92 339.82 C 733.86 348.17 719.92 351.48 706.40 353.17 C 693.66 354.56 680.76 354.10 668.08 352.36 C 636.59 348.86 605.38 343.31 574.08 338.49 C 572.96 336.61 571.90 334.70 570.90 332.76 C 614.88 326.45 655.63 301.25 681.39 265.12 Z" />
<path fill="#c8c8c8" d=" M 317.21 288.58 C 317.24 283.30 317.31 278.02 317.89 272.77 C 317.56 281.45 317.91 290.14 318.17 298.82 C 318.25 299.81 318.40 301.77 318.47 302.75 C 305.53 295.33 293.40 286.23 283.33 275.21 C 294.07 280.97 305.48 285.30 317.21 288.58 Z" />
<path fill="#fefefe" d=" M 0.00 298.07 C 1.45 304.01 3.32 310.02 7.06 314.96 C 9.11 317.98 12.34 320.30 13.20 324.02 C 15.14 330.59 19.07 336.43 23.92 341.22 C 35.17 352.00 49.79 358.99 64.99 362.10 C 89.44 366.90 115.01 362.01 137.44 351.69 C 142.77 359.73 151.36 365.39 160.77 367.41 C 164.60 367.84 166.89 371.30 170.18 372.92 C 183.11 380.27 198.82 379.91 213.02 377.30 C 238.78 372.23 260.50 355.06 276.03 334.48 C 286.12 334.95 296.26 334.43 306.27 333.08 C 305.58 348.32 310.28 363.29 317.39 376.61 C 328.55 383.76 341.50 387.63 354.35 390.56 C 371.76 394.64 389.66 396.06 407.47 397.00 L 0.00 397.00 L 0.00 298.07 Z" />
<path fill="#c8c8c8" d=" M 443.07 299.51 C 447.00 302.37 450.73 305.52 454.93 308.00 C 450.90 328.71 441.19 349.06 424.52 362.52 C 416.77 368.55 407.99 373.99 398.10 375.40 C 390.85 376.58 383.30 374.09 377.91 369.19 C 369.64 361.84 364.75 351.51 361.26 341.21 C 365.63 343.16 369.89 345.55 374.68 346.32 C 385.98 348.43 397.44 344.60 407.30 339.29 C 423.44 330.78 436.16 316.36 443.07 299.51 Z" />
<path fill="#fefefe" d=" M 283.81 322.87 C 288.10 315.87 291.71 308.46 294.80 300.86 C 302.60 306.92 311.07 312.15 319.87 316.61 C 319.96 317.11 320.14 318.12 320.22 318.63 C 308.31 321.50 296.08 323.07 283.81 322.87 Z" />
<path fill="#c8c8c8" d=" M 330.44 306.42 C 334.59 308.56 338.66 310.87 342.79 313.06 C 344.04 322.84 346.53 332.39 349.19 341.87 C 353.46 355.03 359.50 368.24 369.96 377.65 C 361.82 377.32 354.39 372.88 349.46 366.54 C 340.54 355.47 336.74 341.46 333.52 327.88 C 332.37 320.75 330.87 313.65 330.44 306.42 Z" />
<path fill="#c8c8c8" d=" M 464.11 314.77 C 471.67 316.56 478.09 321.12 485.44 323.46 C 507.61 332.12 531.70 335.83 555.44 334.28 C 555.72 337.86 556.15 341.44 557.04 344.94 C 537.33 349.21 516.98 349.69 496.91 348.29 C 482.81 347.81 468.76 345.93 455.00 342.79 C 459.25 334.67 462.28 325.99 464.90 317.24 C 466.46 317.45 468.03 317.70 469.59 318.00 L 464.11 314.77 Z" />
<path fill="#c8c8c8" d=" M 283.81 322.87 C 296.08 323.07 308.31 321.50 320.22 318.63 C 322.53 332.81 325.79 347.00 331.79 360.11 C 327.83 359.85 324.51 357.60 321.06 355.89 C 322.62 360.15 323.98 364.60 326.51 368.40 C 330.84 370.98 335.47 373.56 340.61 373.99 C 344.82 379.05 349.95 383.47 356.04 386.11 C 364.72 390.00 374.80 389.83 383.73 386.85 C 386.07 385.80 388.54 386.90 390.95 387.06 C 397.36 387.78 403.77 386.44 409.80 384.34 C 414.98 386.44 420.61 384.89 426.00 384.85 C 433.72 384.81 441.39 383.81 449.04 382.85 C 454.03 381.91 459.19 381.40 463.85 379.25 C 472.37 381.21 481.08 381.79 489.74 382.78 C 480.23 387.95 469.64 390.80 459.04 392.75 C 445.96 395.61 432.53 396.23 419.20 397.00 L 407.47 397.00 C 389.66 396.06 371.76 394.64 354.35 390.56 C 341.50 387.63 328.55 383.76 317.39 376.61 C 310.28 363.29 305.58 348.32 306.27 333.08 C 296.26 334.43 286.12 334.95 276.03 334.48 C 278.88 330.78 281.44 326.88 283.81 322.87 Z" />
<path fill="#7d7d7d" d=" M 455.00 342.79 C 468.76 345.93 482.81 347.81 496.91 348.29 C 516.98 349.69 537.33 349.21 557.04 344.94 C 557.92 348.64 559.30 352.20 560.81 355.69 C 550.35 358.08 539.65 359.04 528.99 359.96 C 519.98 359.65 511.01 361.30 502.03 360.21 C 484.11 359.76 466.22 357.52 448.88 352.91 C 451.18 349.70 453.21 346.31 455.00 342.79 Z" />
<path fill="#c8c8c8" d=" M 741.45 354.51 C 744.79 352.71 748.23 350.94 751.08 348.40 C 744.05 359.19 732.08 365.42 720.14 369.28 C 706.89 373.51 692.89 375.19 679.01 374.75 C 667.22 374.33 655.60 372.14 643.92 370.65 C 620.53 367.24 597.12 363.69 574.13 358.14 C 572.31 355.03 570.64 351.84 569.33 348.49 C 605.16 354.12 640.93 360.44 677.04 364.07 C 698.79 365.76 721.53 364.03 741.45 354.51 Z" />
<path fill="#c8c8c8" d=" M 441.85 362.00 C 444.27 359.04 446.71 356.08 448.88 352.91 C 466.22 357.52 484.11 359.76 502.03 360.21 C 511.01 361.30 519.98 359.65 528.99 359.96 C 539.65 359.04 550.35 358.08 560.81 355.69 C 562.50 359.22 564.43 362.63 566.35 366.05 C 557.03 368.27 547.61 370.15 538.05 370.93 C 520.37 373.15 502.54 371.81 484.84 370.68 C 470.28 369.20 455.79 366.44 441.85 362.00 Z" />
<path fill="#fefefe" d=" M 321.06 355.89 C 324.51 357.60 327.83 359.85 331.79 360.11 C 334.31 364.98 337.05 369.79 340.61 373.99 C 335.47 373.56 330.84 370.98 326.51 368.40 C 323.98 364.60 322.62 360.15 321.06 355.89 Z" />
<path fill="#7d7d7d" d=" M 432.15 371.38 C 435.64 368.54 438.87 365.37 441.85 362.00 C 455.79 366.44 470.28 369.20 484.84 370.68 C 502.54 371.81 520.37 373.15 538.05 370.93 C 547.61 370.15 557.03 368.27 566.35 366.05 C 566.56 366.42 567.00 367.15 567.22 367.51 C 573.00 368.75 578.74 370.19 584.48 371.57 C 576.73 375.26 568.34 377.52 559.92 379.09 C 536.89 384.02 513.16 384.12 489.74 382.78 C 481.08 381.79 472.37 381.21 463.85 379.25 C 453.05 377.74 442.49 374.73 432.15 371.38 Z" />
<path fill="#fefefe" d=" M 409.80 384.34 C 417.97 381.43 425.30 376.62 432.15 371.38 C 442.49 374.73 453.05 377.74 463.85 379.25 C 459.19 381.40 454.03 381.91 449.04 382.85 C 441.39 383.81 433.72 384.81 426.00 384.85 C 420.61 384.89 414.98 386.44 409.80 384.34 Z" />
</svg>
