<?xml version="1.0" encoding="UTF-8" ?>
<!DOCTYPE svg PUBLIC "-//W3C//DTD SVG 1.1//EN" "http://www.w3.org/Graphics/SVG/1.1/DTD/svg11.dtd">
<svg width="350pt" height="350pt" viewBox="0 0 350 350" version="1.1" xmlns="http://www.w3.org/2000/svg">
<path fill="#4543af" d=" M 0.00 0.00 L 350.00 0.00 L 350.00 292.72 C 343.42 292.44 336.83 292.66 330.24 292.62 C 323.39 292.60 316.53 292.60 309.68 292.61 L 309.24 292.61 C 302.48 292.60 295.71 292.60 288.94 292.61 C 282.36 292.64 275.77 292.50 269.18 292.74 C 261.75 292.47 254.31 292.57 246.87 292.65 C 240.33 292.46 233.79 292.47 227.26 292.63 C 222.87 292.63 218.48 292.61 214.10 292.48 C 214.34 292.63 214.82 292.92 215.06 293.07 C 207.86 292.25 200.60 293.00 193.40 292.40 C 190.07 288.89 186.76 284.96 181.65 284.14 C 182.41 283.09 183.16 282.05 183.92 281.01 C 181.40 281.96 178.90 282.97 176.36 283.85 C 174.10 284.02 171.84 284.20 169.61 284.54 C 170.49 280.10 171.51 275.68 172.33 271.22 C 168.73 274.78 165.54 278.71 162.07 282.40 C 160.47 277.49 159.13 272.50 157.33 267.67 C 156.18 272.64 155.29 277.67 154.14 282.65 C 150.22 279.44 146.67 275.81 142.77 272.57 C 144.16 277.44 145.90 282.20 147.45 287.03 C 145.86 286.81 144.27 286.60 142.69 286.33 C 131.73 281.84 119.48 284.42 109.33 289.75 C 98.89 281.49 83.98 282.97 72.75 288.78 C 69.29 290.59 65.98 293.32 61.79 292.67 C 54.82 292.56 47.85 292.61 40.88 292.62 C 34.09 292.61 27.30 292.59 20.51 292.62 C 20.48 297.03 20.49 301.45 20.38 305.88 C 20.28 310.30 20.28 314.73 20.38 319.16 C 20.49 323.60 20.48 328.04 20.52 332.48 C 27.31 332.50 34.09 332.49 40.88 332.47 C 47.85 332.48 54.82 332.52 61.78 332.47 C 65.72 332.68 70.25 331.47 73.57 334.24 C 77.83 337.35 83.40 338.57 88.57 337.47 C 93.47 336.59 97.91 334.25 102.36 332.12 C 102.40 332.17 102.47 332.25 102.51 332.30 L 102.52 332.13 C 106.18 332.33 110.15 332.16 113.12 334.71 C 121.58 340.62 132.70 337.07 140.69 332.08 C 141.83 332.87 143.05 332.97 144.36 332.36 C 149.20 331.33 151.29 337.07 155.88 337.19 C 159.70 338.25 163.66 337.33 166.74 334.89 C 172.59 338.04 181.24 338.86 185.83 333.17 C 188.90 336.61 193.72 338.20 198.23 337.24 C 200.15 336.66 201.34 334.88 202.74 333.57 C 206.69 338.92 216.22 339.29 220.10 333.68 C 227.92 339.19 239.24 339.32 246.55 332.83 C 249.32 335.13 252.46 337.34 256.21 337.41 C 260.50 337.48 264.82 336.93 269.00 335.96 C 271.60 335.38 273.17 332.48 275.95 332.51 C 280.28 332.31 284.61 332.56 288.94 332.49 C 295.71 332.48 302.48 332.49 309.25 332.49 L 309.68 332.49 C 316.53 332.50 323.39 332.49 330.24 332.47 C 336.83 332.50 343.41 332.49 350.00 332.49 L 350.00 350.00 L 0.00 350.00 L 0.00 332.30 C 6.75 332.72 13.53 332.39 20.29 332.48 C 20.32 328.01 20.37 323.54 20.25 319.07 C 20.12 314.68 20.13 310.29 20.25 305.91 C 20.37 301.48 20.32 297.04 20.29 292.61 C 13.53 292.60 6.76 292.60 0.00 292.60 L 0.00 0.00 Z" />
<path fill="#8f8ecf" d=" M 43.23 15.62 C 45.66 19.13 47.34 23.07 49.62 26.66 C 49.84 26.67 50.29 26.68 50.51 26.69 C 53.11 23.36 55.10 19.59 57.85 16.37 C 57.69 20.89 57.30 25.41 57.08 29.93 C 61.17 28.18 65.21 26.29 69.40 24.81 C 67.11 28.63 64.22 32.04 61.78 35.76 C 66.26 36.52 70.77 37.15 75.19 38.22 C 71.01 39.87 66.77 41.35 62.62 43.07 C 65.60 46.32 69.10 49.04 72.19 52.17 C 67.74 51.73 63.43 50.54 59.03 49.86 C 60.13 54.09 61.41 58.29 62.26 62.58 C 58.75 59.89 55.99 56.38 52.45 53.72 C 51.06 57.88 49.87 62.10 48.47 66.25 C 46.88 62.06 46.29 57.59 45.17 53.26 C 41.57 55.87 38.34 58.95 34.67 61.46 C 35.93 57.20 37.59 53.08 39.06 48.90 C 34.62 49.35 30.20 49.95 25.74 50.14 C 29.08 47.27 32.71 44.76 36.19 42.06 C 32.24 39.72 27.91 38.09 24.03 35.63 C 28.57 35.38 33.12 35.13 37.63 34.50 C 35.35 30.65 32.87 26.91 30.80 22.94 C 34.89 24.87 38.78 27.19 42.84 29.17 C 42.97 24.65 43.01 20.13 43.23 15.62 Z" />
<path fill="#8f8ecf" d=" M 242.49 19.45 C 243.88 22.33 245.08 25.30 246.12 28.33 C 248.89 26.71 251.55 24.93 254.16 23.07 C 253.40 26.22 252.48 29.34 251.42 32.40 C 254.69 32.70 257.96 32.99 261.23 33.31 C 258.53 35.17 255.71 36.85 252.82 38.41 C 255.06 41.00 257.47 43.44 259.93 45.83 C 256.57 45.28 253.20 44.80 249.83 44.35 C 250.10 47.49 250.34 50.64 250.44 53.79 C 248.15 51.59 246.01 49.23 243.97 46.78 C 242.05 49.48 240.11 52.15 238.11 54.78 C 237.97 51.48 237.90 48.18 237.87 44.88 C 234.73 45.70 231.58 46.50 228.41 47.19 C 230.36 44.59 232.34 42.00 234.27 39.38 C 231.40 38.07 228.51 36.78 225.68 35.37 C 228.70 34.33 231.85 33.77 235.01 33.35 C 233.82 30.28 232.55 27.25 231.24 24.24 C 234.16 25.69 237.03 27.25 239.87 28.87 C 240.71 25.72 241.56 22.57 242.49 19.45 Z" />
<path fill="#8f8ecf" d=" M 154.64 28.95 C 155.72 27.56 156.81 26.16 157.89 24.76 C 158.11 26.42 158.33 28.08 158.55 29.75 C 160.34 29.88 162.14 30.00 163.93 30.14 C 162.76 31.36 161.59 32.58 160.41 33.80 C 161.59 35.17 162.76 36.54 163.93 37.91 C 162.18 37.77 160.43 37.62 158.69 37.47 C 158.27 39.08 157.86 40.69 157.45 42.31 C 156.38 41.01 155.29 39.71 154.20 38.43 C 152.77 39.15 151.33 39.87 149.90 40.59 C 150.25 38.91 150.60 37.23 150.96 35.56 C 149.51 34.79 148.05 34.05 146.58 33.33 C 148.04 32.78 149.51 32.23 150.98 31.68 C 150.77 29.92 150.57 28.17 150.35 26.41 C 151.78 27.26 153.21 28.11 154.64 28.95 Z" />
<path fill="#8f8ecf" d=" M 304.56 40.02 C 306.18 36.46 307.80 32.88 309.76 29.48 C 310.36 33.35 310.84 37.23 311.34 41.11 C 314.82 39.29 318.23 37.33 321.87 35.83 C 320.05 39.26 318.08 42.61 316.41 46.12 C 320.26 46.70 324.14 47.14 328.00 47.64 C 324.90 49.77 321.14 50.77 318.09 52.95 C 319.64 56.19 323.47 58.22 325.66 61.23 C 321.83 60.70 318.03 59.98 314.24 59.28 C 314.90 63.09 315.62 66.89 316.10 70.73 C 313.21 68.28 311.00 65.12 307.97 62.83 C 305.84 65.84 305.07 69.63 302.56 72.40 C 301.97 68.74 301.57 65.06 301.06 61.39 C 297.59 63.10 294.23 65.04 290.70 66.61 C 292.37 63.10 294.28 59.72 296.07 56.27 C 292.21 55.80 288.34 55.36 284.50 54.71 C 287.90 52.74 291.49 51.13 295.02 49.41 C 292.16 46.73 289.27 44.07 286.68 41.12 C 290.52 41.75 294.34 42.52 298.19 43.15 C 297.50 39.44 296.82 35.72 296.37 31.96 C 299.30 34.44 301.83 37.33 304.56 40.02 Z" />
<path fill="#8f8ecf" d=" M 115.85 59.53 C 116.46 56.54 117.28 53.58 118.44 50.74 C 119.55 53.52 120.55 56.33 121.54 59.15 C 124.17 57.57 126.80 55.97 129.36 54.28 C 128.53 57.12 127.61 59.93 126.66 62.73 C 127.42 62.98 128.93 63.49 129.69 63.75 C 123.27 67.18 117.31 71.41 111.69 76.03 C 109.38 76.24 107.08 76.53 104.79 76.92 C 106.68 74.56 108.54 72.18 110.43 69.82 C 107.70 68.54 105.06 67.08 102.49 65.52 C 105.38 64.86 108.29 64.30 111.21 63.79 C 109.99 60.99 108.78 58.19 107.63 55.37 C 110.35 56.79 113.11 58.15 115.85 59.53 Z" />
<path fill="#000000" d=" M 129.69 63.75 C 151.19 51.73 177.22 49.15 200.99 54.94 C 233.17 63.11 260.23 88.59 270.67 120.06 C 271.18 121.62 271.65 123.20 272.09 124.78 C 272.82 127.53 273.41 130.32 273.91 133.12 C 274.14 134.48 274.37 135.85 274.61 137.22 C 279.81 138.50 284.31 141.58 287.95 145.45 C 293.27 151.51 295.58 160.40 292.81 168.13 C 289.75 178.05 280.19 185.46 269.73 185.50 C 266.50 192.24 263.52 199.15 259.34 205.38 C 257.51 207.83 257.64 211.01 257.30 213.90 C 256.07 225.24 252.21 236.79 243.93 244.98 C 238.00 251.58 228.10 253.56 219.77 251.01 C 215.96 249.77 212.72 247.36 209.76 244.72 C 204.87 246.00 200.03 247.50 195.03 248.31 C 184.28 250.50 173.24 250.54 162.39 249.11 C 159.33 256.78 153.51 263.53 145.82 266.78 C 140.18 269.22 133.31 269.28 127.98 266.02 C 120.39 261.83 115.32 254.24 112.47 246.22 L 112.15 245.39 C 111.11 241.87 110.38 238.26 109.88 234.63 C 109.73 233.29 109.61 231.94 109.53 230.60 C 109.43 228.42 109.40 226.24 109.36 224.06 C 108.80 223.51 108.24 222.96 107.68 222.41 C 106.85 221.60 106.03 220.78 105.21 219.96 C 103.24 217.95 101.37 215.86 99.59 213.69 C 98.87 212.79 98.16 211.89 97.47 210.97 C 88.38 199.04 82.10 185.05 79.10 170.36 C 72.86 169.78 66.82 167.05 62.61 162.34 C 57.08 156.50 54.60 147.77 56.88 139.98 C 58.44 134.14 62.50 129.29 67.27 125.72 C 70.65 124.00 74.18 122.37 78.02 122.04 C 79.23 121.93 80.45 121.85 81.67 121.79 C 86.96 104.02 97.79 88.19 111.69 76.03 C 117.31 71.41 123.27 67.18 129.69 63.75 Z" />
<path fill="#ffe673" d=" M 120.36 74.30 C 140.09 59.70 165.66 53.41 189.93 56.99 C 223.92 61.50 254.49 86.15 265.63 118.63 C 266.15 131.15 265.44 143.88 261.82 155.95 C 258.94 165.52 255.37 175.07 249.39 183.18 C 247.35 178.18 244.41 173.51 240.45 169.80 C 236.23 165.48 230.12 162.73 224.01 163.74 C 215.92 164.83 209.83 171.33 206.14 178.20 C 198.89 192.01 198.28 208.60 202.32 223.48 C 189.08 228.33 175.12 231.46 160.95 231.13 C 148.08 231.03 135.29 228.32 123.37 223.51 C 118.27 221.48 113.69 218.16 108.20 217.19 L 108.08 217.16 C 94.59 203.28 85.47 185.19 82.56 166.04 C 88.33 165.14 93.82 161.99 96.98 157.00 C 100.99 150.96 101.22 142.82 97.75 136.48 C 95.19 131.33 90.05 127.88 84.57 126.49 C 90.06 105.68 102.95 86.94 120.36 74.30 Z" />
<path fill="#8f8ecf" d=" M 27.52 98.83 C 28.58 97.47 29.64 96.11 30.71 94.75 C 30.91 96.46 31.11 98.16 31.31 99.87 C 33.03 99.90 34.75 99.94 36.48 99.98 C 35.39 101.24 34.31 102.50 33.22 103.76 C 34.28 105.12 35.34 106.48 36.40 107.84 C 34.66 107.77 32.92 107.71 31.18 107.64 C 30.85 109.19 30.51 110.75 30.18 112.31 C 29.14 111.02 28.09 109.74 27.01 108.48 C 25.52 109.17 24.02 109.86 22.53 110.56 C 22.99 108.93 23.44 107.29 23.90 105.67 C 22.25 104.93 20.61 104.19 18.96 103.45 C 20.62 102.83 22.27 102.21 23.93 101.59 C 23.59 99.93 23.25 98.26 22.91 96.59 C 24.45 97.33 25.98 98.08 27.52 98.83 Z" />
<path fill="#8f8ecf" d=" M 288.74 94.88 C 292.40 99.34 294.48 104.82 297.43 109.74 C 301.24 105.10 304.23 99.87 307.73 95.00 C 307.57 100.99 306.90 106.96 306.75 112.96 C 312.12 110.85 317.28 108.23 322.74 106.37 C 319.78 111.36 315.81 115.65 312.80 120.61 C 318.58 121.61 324.39 122.51 330.17 123.52 C 324.82 126.04 319.15 127.77 313.70 130.05 C 317.77 134.27 322.43 137.85 326.47 142.09 C 320.70 141.20 315.04 139.75 309.33 138.60 C 310.37 144.30 312.45 149.75 313.42 155.47 C 308.86 152.09 305.66 147.09 300.93 144.02 C 298.58 149.25 297.42 154.93 295.49 160.33 C 293.68 154.71 292.71 148.87 291.40 143.12 C 290.25 143.89 289.09 144.67 287.95 145.45 C 284.31 141.58 279.81 138.50 274.61 137.22 C 274.37 135.85 274.14 134.48 273.91 133.12 C 275.91 131.60 277.90 130.09 279.90 128.57 C 277.31 127.29 274.70 126.02 272.09 124.78 C 271.65 123.20 271.18 121.62 270.67 120.06 C 274.29 119.76 277.91 119.45 281.52 119.08 C 278.79 113.92 275.31 109.19 272.74 103.94 C 278.00 106.47 283.01 109.48 288.22 112.11 C 288.57 106.37 288.50 100.62 288.74 94.88 Z" />
<path fill="#8f8ecf" d=" M 66.25 110.99 C 67.93 109.15 68.92 106.10 71.30 105.29 C 71.74 107.63 71.89 110.02 72.12 112.39 C 74.83 112.36 77.54 112.29 80.25 112.21 C 78.49 114.18 76.69 116.11 74.84 118.01 C 75.90 119.35 76.96 120.69 78.02 122.04 C 74.18 122.37 70.65 124.00 67.27 125.72 C 64.13 124.92 61.56 127.22 58.87 128.39 C 59.59 125.89 60.36 123.41 61.16 120.94 C 58.70 119.81 56.25 118.67 53.81 117.48 C 56.29 116.57 58.78 115.69 61.27 114.82 C 60.66 112.23 60.03 109.63 59.41 107.04 C 61.73 108.29 64.01 109.60 66.25 110.99 Z" />
<path fill="#c6aa27" d=" M 189.15 105.92 C 195.33 104.64 199.61 110.14 201.89 115.09 C 205.05 122.43 206.36 131.25 202.66 138.65 C 201.73 140.62 199.80 141.69 197.97 142.67 C 201.79 135.60 202.57 127.10 199.56 119.58 C 197.58 114.19 194.04 107.36 187.41 107.44 C 187.99 106.93 188.57 106.43 189.15 105.92 Z" />
<path fill="#504308" d=" M 187.41 107.44 C 194.04 107.36 197.58 114.19 199.56 119.58 C 202.57 127.10 201.79 135.60 197.97 142.67 C 190.37 142.65 186.46 134.93 184.61 128.62 C 182.87 121.69 182.35 113.15 187.41 107.44 Z" />
<path fill="#c6aa27" d=" M 158.19 109.11 C 161.21 108.88 164.74 108.35 167.09 110.77 C 173.26 116.66 175.75 125.73 174.99 134.08 C 174.80 138.77 172.78 143.95 168.02 145.66 C 173.53 136.70 172.39 124.87 166.86 116.21 C 165.10 113.23 162.08 111.45 159.19 109.73 L 158.19 109.11 Z" />
<path fill="#504308" d=" M 154.56 116.02 C 155.23 113.46 156.62 110.79 159.19 109.73 C 162.08 111.45 165.10 113.23 166.86 116.21 C 172.39 124.87 173.53 136.70 168.02 145.66 C 164.28 145.26 160.79 143.35 158.88 140.04 C 154.17 133.12 152.57 124.14 154.56 116.02 Z" />
<path fill="#e6cf68" d=" M 265.63 118.63 C 268.68 125.78 270.08 133.54 270.99 141.23 C 272.16 154.59 270.93 168.21 266.69 180.97 C 263.72 189.60 259.91 198.14 254.20 205.32 C 253.25 197.82 252.36 190.20 249.39 183.18 C 255.37 175.07 258.94 165.52 261.82 155.95 C 265.44 143.88 266.15 131.15 265.63 118.63 Z" />
<path fill="#4543af" d=" M 272.09 124.78 C 274.70 126.02 277.31 127.29 279.90 128.57 C 277.90 130.09 275.91 131.60 273.91 133.12 C 273.41 130.32 272.82 127.53 272.09 124.78 Z" />
<path fill="#e4c32b" d=" M 61.15 139.92 C 63.98 130.28 74.83 124.14 84.57 126.49 C 90.05 127.88 95.19 131.33 97.75 136.48 C 98.32 143.86 96.86 151.99 90.93 157.01 C 85.76 162.59 77.78 163.35 70.63 163.67 C 62.32 159.37 58.06 148.78 61.15 139.92 Z" />
<path fill="#c6aa27" d=" M 90.93 157.01 C 96.86 151.99 98.32 143.86 97.75 136.48 C 101.22 142.82 100.99 150.96 96.98 157.00 C 93.82 161.99 88.33 165.14 82.56 166.04 C 78.45 166.48 74.26 165.65 70.63 163.67 C 77.78 163.35 85.76 162.59 90.93 157.01 Z" />
<path fill="#c6aa27" d=" M 270.99 141.23 C 276.54 141.67 281.91 144.26 285.41 148.64 C 290.65 155.07 291.31 164.85 286.77 171.84 C 282.69 178.56 274.43 182.28 266.69 180.97 C 270.93 168.21 272.16 154.59 270.99 141.23 Z" />
<path fill="#e4c32b" d=" M 206.14 178.20 C 209.83 171.33 215.92 164.83 224.01 163.74 C 230.12 162.73 236.23 165.48 240.45 169.80 C 235.88 169.31 231.17 168.22 226.63 169.50 C 220.23 171.27 215.34 176.32 211.76 181.70 C 206.80 189.93 204.22 199.48 203.79 209.06 C 203.36 215.93 204.54 222.74 204.89 229.59 C 203.99 227.57 203.07 225.56 202.32 223.48 C 198.28 208.60 198.89 192.01 206.14 178.20 Z" />
<path fill="#c6aa27" d=" M 226.63 169.50 C 231.17 168.22 235.88 169.31 240.45 169.80 C 244.41 173.51 247.35 178.18 249.39 183.18 C 252.36 190.20 253.25 197.82 254.20 205.32 C 253.42 216.62 251.64 228.46 244.76 237.82 C 240.87 243.28 234.95 247.89 228.01 248.16 C 221.27 248.63 215.10 244.65 210.83 239.74 C 208.32 236.70 206.40 233.22 204.89 229.59 C 204.54 222.74 203.36 215.93 203.79 209.06 C 204.22 199.48 206.80 189.93 211.76 181.70 C 215.34 176.32 220.23 171.27 226.63 169.50 Z" />
<path fill="#8f8ecf" d=" M 31.26 187.78 C 33.04 184.29 34.67 180.71 36.62 177.31 C 37.22 181.19 37.69 185.10 38.19 189.00 C 41.59 187.15 44.99 185.27 48.52 183.68 C 46.92 187.19 45.02 190.55 43.14 193.92 C 47.11 194.50 51.10 195.00 55.08 195.52 C 51.54 197.40 47.90 199.09 44.31 200.87 C 47.09 203.59 49.94 206.23 52.57 209.09 C 48.69 208.56 44.85 207.77 41.00 207.05 C 41.78 210.99 42.55 214.93 42.94 218.93 C 40.28 216.02 37.63 213.10 34.81 210.33 C 33.08 213.74 31.58 217.28 29.44 220.47 C 28.84 216.69 28.40 212.89 27.87 209.10 C 24.51 210.97 21.14 212.84 17.63 214.43 C 19.20 210.90 21.11 207.54 22.98 204.16 C 19.15 203.63 15.31 203.17 11.50 202.56 C 14.79 200.51 18.35 198.95 21.82 197.25 C 19.03 194.52 16.15 191.88 13.52 188.99 C 17.39 189.56 21.23 190.34 25.08 191.04 C 24.33 187.05 23.56 183.07 23.09 179.04 C 25.76 182.00 28.46 184.94 31.26 187.78 Z" />
<path fill="#8f8ecf" d=" M 293.86 206.04 C 295.07 203.47 296.37 200.94 297.81 198.49 C 298.30 201.29 298.69 204.10 299.07 206.92 C 301.65 205.51 304.26 204.15 306.90 202.85 C 305.51 205.43 304.16 208.03 302.85 210.65 C 305.57 211.01 308.28 211.42 310.96 211.99 C 308.63 213.33 306.13 214.42 303.91 215.96 C 305.73 218.14 307.90 220.00 310.00 221.91 C 307.08 221.54 304.17 221.08 301.27 220.55 C 301.70 223.30 302.12 226.04 302.50 228.79 C 300.43 226.89 298.39 224.94 296.40 222.94 C 295.31 225.53 293.98 228.01 292.45 230.36 C 292.05 227.66 291.70 224.96 291.39 222.25 C 288.78 223.43 286.20 224.64 283.69 226.01 C 284.94 223.43 286.18 220.83 287.46 218.26 C 284.80 217.93 282.15 217.54 279.52 217.01 C 281.82 215.55 284.21 214.22 286.72 213.15 C 284.66 211.15 282.65 209.10 280.70 207.00 C 283.51 207.42 286.30 207.89 289.10 208.38 C 288.63 205.58 288.23 202.78 287.96 199.96 C 289.93 201.98 291.89 204.02 293.86 206.04 Z" />
<path fill="#8f8ecf" d=" M 85.73 204.03 C 87.82 208.78 88.81 213.91 90.70 218.74 C 93.03 216.21 95.28 213.62 97.47 210.97 C 98.16 211.89 98.87 212.79 99.59 213.69 C 98.96 216.59 98.33 219.49 97.72 222.39 C 100.22 221.59 102.72 220.78 105.21 219.96 C 106.03 220.78 106.85 221.60 107.68 222.41 C 105.85 224.68 104.01 226.94 102.19 229.23 C 104.64 229.70 107.08 230.15 109.53 230.60 C 109.61 231.94 109.73 233.29 109.88 234.63 C 107.64 235.56 104.69 235.56 103.01 237.49 C 105.71 240.50 109.09 242.77 112.15 245.39 L 112.47 246.22 L 112.12 246.85 C 107.65 246.45 103.27 244.87 98.83 244.07 C 100.19 248.95 102.13 253.65 103.42 258.56 C 99.38 255.51 96.02 251.68 92.07 248.53 C 90.98 253.30 90.29 258.16 88.92 262.86 C 86.71 258.41 85.94 253.45 84.09 248.86 C 80.61 252.57 77.50 256.61 73.90 260.20 C 74.66 255.13 76.15 250.20 77.05 245.15 C 72.09 246.71 67.29 248.79 62.19 249.87 C 65.77 246.16 69.32 242.43 72.76 238.59 C 67.80 237.29 62.72 236.56 57.72 235.45 C 62.43 233.42 67.44 232.26 72.31 230.69 C 68.71 226.96 64.53 223.88 60.84 220.25 C 65.92 221.06 70.86 222.48 75.87 223.59 C 74.70 218.67 72.62 214.04 71.40 209.14 C 75.46 212.18 78.87 215.96 82.75 219.21 C 83.76 214.15 84.74 209.09 85.73 204.03 Z" />
<path fill="#4543af" d=" M 99.59 213.69 C 101.37 215.86 103.24 217.95 105.21 219.96 C 102.72 220.78 100.22 221.59 97.72 222.39 C 98.33 219.49 98.96 216.59 99.59 213.69 Z" />
<path fill="#e6cf68" d=" M 108.20 217.19 C 113.69 218.16 118.27 221.48 123.37 223.51 C 135.29 228.32 148.08 231.03 160.95 231.13 C 175.12 231.46 189.08 228.33 202.32 223.48 C 203.07 225.56 203.99 227.57 204.89 229.59 C 206.40 233.22 208.32 236.70 210.83 239.74 C 194.89 245.90 177.22 247.78 160.39 244.71 C 143.05 242.18 126.67 234.16 113.59 222.59 C 111.74 220.85 109.91 219.07 108.20 217.19 Z" />
<path fill="#4543af" d=" M 107.68 222.41 C 108.24 222.96 108.80 223.51 109.36 224.06 C 109.40 226.24 109.43 228.42 109.53 230.60 C 107.08 230.15 104.64 229.70 102.19 229.23 C 104.01 226.94 105.85 224.68 107.68 222.41 Z" />
<path fill="#c6aa27" d=" M 113.59 222.59 C 126.67 234.16 143.05 242.18 160.39 244.71 C 157.30 250.00 154.74 255.82 149.81 259.74 C 144.90 264.08 137.58 266.00 131.41 263.31 C 124.47 260.36 119.86 253.75 117.12 246.95 C 114.07 239.25 113.03 230.83 113.59 222.59 Z" />
<path fill="#4543af" d=" M 103.01 237.49 C 104.69 235.56 107.64 235.56 109.88 234.63 C 110.38 238.26 111.11 241.87 112.15 245.39 C 109.09 242.77 105.71 240.50 103.01 237.49 Z" />
<path fill="#8f8ecf" d=" M 313.18 250.38 C 315.11 246.90 316.72 243.26 318.60 239.75 C 319.17 243.69 319.63 247.63 320.12 251.58 C 323.57 249.85 326.91 247.92 330.45 246.39 C 328.84 249.90 326.93 253.25 325.10 256.64 C 328.94 257.12 332.79 257.59 336.61 258.25 C 333.28 260.26 329.67 261.75 326.27 263.64 C 329.17 266.40 332.10 269.12 334.99 271.90 C 330.99 271.25 327.02 270.48 323.03 269.80 C 323.72 273.65 324.47 277.50 324.99 281.39 C 322.13 278.64 319.52 275.64 316.57 272.99 C 315.04 276.53 313.47 280.08 311.39 283.35 C 310.83 279.50 310.39 275.65 309.86 271.81 C 306.43 273.64 303.03 275.53 299.51 277.18 C 300.82 273.71 303.44 270.57 304.45 267.15 C 301.55 265.62 297.59 266.29 294.34 265.39 C 294.32 265.18 294.27 264.76 294.25 264.55 C 297.31 262.83 300.61 261.57 303.73 259.97 C 301.05 257.21 298.18 254.64 295.60 251.77 C 299.43 252.22 303.21 252.93 306.98 253.74 C 306.32 249.79 305.57 245.85 305.01 241.88 C 307.78 244.67 310.42 247.58 313.18 250.38 Z" />
<path fill="#8f8ecf" d=" M 195.03 248.31 C 200.03 247.50 204.87 246.00 209.76 244.72 C 212.72 247.36 215.96 249.77 219.77 251.01 C 221.93 253.40 224.14 255.75 226.32 258.12 C 223.26 257.75 220.21 257.32 217.16 256.87 C 217.43 259.98 217.66 263.09 217.87 266.20 C 215.73 263.87 213.62 261.51 211.50 259.15 C 209.83 261.74 208.04 264.25 206.10 266.65 C 205.96 263.60 205.91 260.54 205.91 257.49 C 202.94 258.18 199.97 258.88 197.00 259.55 C 198.68 257.09 200.53 254.74 202.55 252.55 C 199.97 251.26 197.49 249.80 195.03 248.31 Z" />
<path fill="#8f8ecf" d=" M 28.62 256.91 C 29.33 253.85 30.26 250.85 31.31 247.89 C 32.33 250.83 33.47 253.71 34.74 256.55 C 37.18 254.79 39.66 253.10 42.23 251.54 C 41.36 254.46 40.44 257.36 39.52 260.26 C 42.55 260.54 45.58 260.83 48.60 261.18 C 46.08 262.92 43.48 264.55 40.83 266.09 C 43.00 268.34 45.14 270.62 47.27 272.90 C 44.17 272.45 41.07 272.00 37.97 271.57 C 38.27 274.72 38.53 277.87 38.76 281.03 C 36.65 278.62 34.52 276.22 32.35 273.86 C 30.66 276.39 28.90 278.89 27.03 281.29 C 26.81 278.22 26.72 275.15 26.69 272.08 C 23.72 272.88 20.74 273.62 17.74 274.28 C 19.57 271.83 21.41 269.39 23.29 266.98 C 20.90 265.82 18.45 264.80 16.15 263.48 C 16.19 263.26 16.27 262.80 16.31 262.58 C 18.87 261.88 21.51 261.51 24.11 261.02 C 22.83 258.26 21.61 255.48 20.50 252.64 C 23.25 253.99 25.95 255.43 28.62 256.91 Z" />
<path fill="#8f8ecf" d=" M 261.87 259.36 C 262.92 258.15 263.95 256.93 264.98 255.70 C 265.35 257.33 265.73 258.96 266.11 260.59 C 267.69 260.54 269.28 260.49 270.87 260.44 C 269.84 261.70 268.83 262.97 267.81 264.24 C 268.77 265.60 269.72 266.96 270.69 268.33 C 269.12 268.23 267.56 268.19 265.99 268.21 C 265.04 269.66 265.10 271.55 264.65 273.19 C 263.66 271.78 262.66 270.39 261.64 269.01 C 260.07 269.73 258.51 270.46 256.94 271.18 C 257.40 269.48 257.86 267.79 258.33 266.10 C 256.83 265.49 255.34 264.87 253.85 264.25 C 255.36 263.49 256.85 262.71 258.35 261.91 C 258.01 260.31 257.67 258.70 257.34 257.10 C 258.85 257.84 260.36 258.60 261.87 259.36 Z" />
<path fill="#8f8ecf" d=" M 157.33 267.67 C 159.13 272.50 160.47 277.49 162.07 282.40 C 165.54 278.71 168.73 274.78 172.33 271.22 C 171.51 275.68 170.49 280.10 169.61 284.54 C 163.01 286.23 157.02 289.61 151.07 292.82 C 148.61 290.26 145.88 287.93 142.69 286.33 C 144.27 286.60 145.86 286.81 147.45 287.03 C 145.90 282.20 144.16 277.44 142.77 272.57 C 146.67 275.81 150.22 279.44 154.14 282.65 C 155.29 277.67 156.18 272.64 157.33 267.67 Z" />
<path fill="#8f8ecf" d=" M 176.36 283.85 C 178.90 282.97 181.40 281.96 183.92 281.01 C 183.16 282.05 182.41 283.09 181.65 284.14 C 179.89 283.97 178.12 283.90 176.36 283.85 Z" />
<path fill="#000000" d=" M 72.75 288.78 C 83.98 282.97 98.89 281.49 109.33 289.75 C 119.48 284.42 131.73 281.84 142.69 286.33 C 145.88 287.93 148.61 290.26 151.07 292.82 C 157.02 289.61 163.01 286.23 169.61 284.54 C 171.84 284.20 174.10 284.02 176.36 283.85 C 178.12 283.90 179.89 283.97 181.65 284.14 C 186.76 284.96 190.07 288.89 193.40 292.40 C 200.60 293.00 207.86 292.25 215.06 293.07 C 214.26 293.52 213.45 293.98 212.64 294.43 C 208.43 293.49 203.23 293.56 200.30 297.25 C 197.87 300.06 198.18 304.90 194.48 306.57 C 193.94 301.48 193.23 296.18 190.16 291.92 C 187.14 286.74 180.79 284.51 175.04 285.11 C 165.99 285.96 157.97 290.70 150.39 295.36 C 146.74 289.78 140.57 286.09 133.93 285.55 C 125.06 284.43 116.48 287.80 108.77 291.82 C 104.58 287.71 98.80 285.46 92.95 285.37 C 83.72 285.18 74.56 288.52 67.23 294.06 C 68.25 305.40 70.21 316.64 71.72 327.93 C 72.60 333.97 79.62 336.41 84.96 336.47 C 94.38 335.84 102.71 330.46 109.26 323.97 C 110.31 326.78 110.49 330.12 112.60 332.42 C 116.47 335.81 121.95 337.16 126.98 336.10 C 135.91 334.12 144.52 329.16 149.27 321.12 C 149.99 325.20 149.76 329.60 151.53 333.41 C 154.16 336.11 158.41 336.57 161.97 336.00 C 164.10 335.60 164.06 332.97 164.92 331.43 C 168.53 333.83 172.45 336.74 177.07 336.00 C 179.95 336.01 182.48 334.43 184.13 332.14 C 181.34 329.67 178.42 327.37 175.62 324.91 C 179.27 323.14 183.16 321.75 186.42 319.28 C 188.65 317.64 190.14 314.91 193.09 314.43 C 191.48 320.56 187.95 326.41 188.26 332.89 C 189.92 335.26 193.23 336.08 196.00 336.19 C 198.71 336.51 199.83 333.74 201.17 331.97 C 201.94 331.84 203.50 331.58 204.28 331.46 C 205.72 336.33 211.53 337.07 215.72 335.70 C 217.82 334.02 217.98 331.09 218.88 328.74 C 222.43 335.72 231.48 337.69 238.53 335.64 C 242.00 334.60 244.57 331.93 246.99 329.37 C 248.35 331.46 249.67 333.83 252.13 334.78 C 257.79 337.68 264.19 335.16 270.02 334.20 C 270.46 333.63 271.32 332.50 271.76 331.93 C 270.88 330.16 269.66 328.62 268.18 327.33 C 270.40 326.75 274.17 326.15 273.50 322.97 C 273.39 318.63 268.89 317.01 265.25 316.69 C 265.63 315.20 266.03 313.73 266.42 312.26 C 271.19 311.36 276.14 311.44 280.80 309.98 C 284.32 308.02 283.30 303.22 283.15 299.89 C 283.09 297.07 280.82 294.65 277.98 294.51 C 268.82 294.00 259.99 297.11 251.15 298.82 C 246.82 296.27 242.20 293.57 236.97 293.81 C 232.55 293.55 228.54 295.92 225.49 298.91 C 221.97 296.75 218.06 295.26 213.94 294.85 C 214.77 294.40 215.60 293.97 216.44 293.54 C 219.69 294.57 222.91 295.72 226.18 296.70 C 226.55 295.34 226.91 293.99 227.26 292.63 C 233.79 292.47 240.33 292.46 246.87 292.65 C 247.64 295.81 251.39 297.78 254.43 296.63 C 259.27 295.06 264.59 295.04 269.18 292.74 C 275.77 292.50 282.36 292.64 288.94 292.61 C 288.94 297.03 288.94 301.46 288.95 305.89 C 288.21 305.90 286.73 305.92 285.99 305.93 C 285.06 307.89 284.39 310.33 282.08 311.09 C 277.78 312.76 273.05 312.48 268.57 313.41 C 268.47 313.93 268.27 314.98 268.16 315.50 C 270.58 316.41 272.89 317.59 275.00 319.09 C 279.65 319.22 284.30 319.20 288.94 319.19 C 288.94 323.62 288.94 328.06 288.94 332.49 C 284.61 332.56 280.28 332.31 275.95 332.51 C 273.17 332.48 271.60 335.38 269.00 335.96 C 264.82 336.93 260.50 337.48 256.21 337.41 C 252.46 337.34 249.32 335.13 246.55 332.83 C 239.24 339.32 227.92 339.19 220.10 333.68 C 216.22 339.29 206.69 338.92 202.74 333.57 C 201.34 334.88 200.15 336.66 198.23 337.24 C 193.72 338.20 188.90 336.61 185.83 333.17 C 181.24 338.86 172.59 338.04 166.74 334.89 C 163.66 337.33 159.70 338.25 155.88 337.19 C 151.29 337.07 149.20 331.33 144.36 332.36 C 144.36 331.91 144.37 331.01 144.37 330.56 C 142.94 330.45 141.72 330.95 140.69 332.08 C 132.70 337.07 121.58 340.62 113.12 334.71 C 110.15 332.16 106.18 332.33 102.52 332.13 L 102.36 332.12 C 97.91 334.25 93.47 336.59 88.57 337.47 C 83.40 338.57 77.83 337.35 73.57 334.24 C 70.25 331.47 65.72 332.68 61.78 332.47 C 61.77 328.05 61.78 323.63 61.77 319.22 C 63.98 319.14 66.20 319.06 68.41 318.93 C 67.66 314.56 67.03 310.17 66.23 305.82 C 64.73 305.91 63.24 306.02 61.75 306.13 C 61.79 301.64 61.78 297.16 61.79 292.67 C 65.98 293.32 69.29 290.59 72.75 288.78 Z" />
<path fill="#ffffff" d=" M 67.23 294.06 C 74.56 288.52 83.72 285.18 92.95 285.37 C 98.80 285.46 104.58 287.71 108.77 291.82 C 116.48 287.80 125.06 284.43 133.93 285.55 C 140.57 286.09 146.74 289.78 150.39 295.36 C 157.97 290.70 165.99 285.96 175.04 285.11 C 180.79 284.51 187.14 286.74 190.16 291.92 C 193.23 296.18 193.94 301.48 194.48 306.57 C 198.18 304.90 197.87 300.06 200.30 297.25 C 203.23 293.56 208.43 293.49 212.64 294.43 C 213.45 293.98 214.26 293.52 215.06 293.07 C 214.82 292.92 214.34 292.63 214.10 292.48 C 218.48 292.61 222.87 292.63 227.26 292.63 C 226.91 293.99 226.55 295.34 226.18 296.70 C 222.91 295.72 219.69 294.57 216.44 293.54 C 215.60 293.97 214.77 294.40 213.94 294.85 C 218.06 295.26 221.97 296.75 225.49 298.91 C 228.54 295.92 232.55 293.55 236.97 293.81 C 242.20 293.57 246.82 296.27 251.15 298.82 C 259.99 297.11 268.82 294.00 277.98 294.51 C 280.82 294.65 283.09 297.07 283.15 299.89 C 283.30 303.22 284.32 308.02 280.80 309.98 C 276.14 311.44 271.19 311.36 266.42 312.26 C 266.03 313.73 265.63 315.20 265.25 316.69 C 268.89 317.01 273.39 318.63 273.50 322.97 C 274.17 326.15 270.40 326.75 268.18 327.33 C 269.66 328.62 270.88 330.16 271.76 331.93 C 271.32 332.50 270.46 333.63 270.02 334.20 C 264.19 335.16 257.79 337.68 252.13 334.78 C 249.67 333.83 248.35 331.46 246.99 329.37 C 244.57 331.93 242.00 334.60 238.53 335.64 C 231.48 337.69 222.43 335.72 218.88 328.74 C 217.98 331.09 217.82 334.02 215.72 335.70 C 211.53 337.07 205.72 336.33 204.28 331.46 C 203.50 331.58 201.94 331.84 201.17 331.97 C 199.83 333.74 198.71 336.51 196.00 336.19 C 193.23 336.08 189.92 335.26 188.26 332.89 C 187.95 326.41 191.48 320.56 193.09 314.43 C 190.14 314.91 188.65 317.64 186.42 319.28 C 183.16 321.75 179.27 323.14 175.62 324.91 C 178.42 327.37 181.34 329.67 184.13 332.14 C 182.48 334.43 179.95 336.01 177.07 336.00 C 172.45 336.74 168.53 333.83 164.92 331.43 C 164.06 332.97 164.10 335.60 161.97 336.00 C 158.41 336.57 154.16 336.11 151.53 333.41 C 149.76 329.60 149.99 325.20 149.27 321.12 C 144.52 329.16 135.91 334.12 126.98 336.10 C 121.95 337.16 116.47 335.81 112.60 332.42 C 110.49 330.12 110.31 326.78 109.26 323.97 C 102.71 330.46 94.38 335.84 84.96 336.47 C 79.62 336.41 72.60 333.97 71.72 327.93 C 70.21 316.64 68.25 305.40 67.23 294.06 Z" />
<path fill="#000000" d=" M 108.99 295.04 C 117.15 289.34 127.83 285.73 137.69 288.60 C 149.08 292.14 153.39 307.38 148.27 317.45 C 143.47 326.95 133.45 333.65 122.85 334.39 C 119.29 333.71 114.30 332.61 113.87 328.24 C 113.23 322.47 112.10 316.77 111.42 311.01 C 109.83 320.99 101.82 328.96 92.63 332.46 C 89.08 333.58 85.25 335.27 81.53 333.85 C 78.68 333.08 75.16 331.56 75.15 328.08 C 73.78 316.98 71.70 305.98 70.37 294.88 C 77.77 289.85 86.90 286.61 95.93 287.86 C 102.17 288.74 107.80 293.08 109.70 299.18 C 109.44 297.80 109.20 296.42 108.99 295.04 Z" />
<path fill="#000000" d=" M 154.01 296.00 C 161.33 291.74 169.16 286.98 177.95 287.49 C 181.18 287.39 184.27 289.09 186.30 291.53 C 190.05 296.82 191.87 303.79 190.09 310.13 C 187.08 318.10 178.40 321.50 171.06 324.37 C 173.62 327.33 176.90 329.51 179.81 332.09 C 180.06 333.75 178.21 333.46 177.14 333.71 C 171.16 334.48 166.81 329.38 162.20 326.44 C 161.75 329.12 161.25 331.80 160.59 334.44 C 158.73 334.01 156.83 333.74 155.04 333.07 C 153.46 331.15 153.60 328.38 153.11 326.04 C 152.27 318.07 150.89 310.10 151.29 302.06 C 151.47 299.85 151.67 297.02 154.01 296.00 Z" />
<path fill="#ffffff" d=" M 0.00 292.60 C 6.76 292.60 13.53 292.60 20.29 292.61 C 20.32 297.04 20.37 301.48 20.25 305.91 C 13.50 305.89 6.75 305.90 0.00 305.90 L 0.00 292.60 Z" />
<path fill="#000000" d=" M 20.51 292.62 C 27.30 292.59 34.09 292.61 40.88 292.62 C 40.85 296.58 40.81 300.54 41.16 304.49 C 40.89 304.84 40.35 305.54 40.08 305.89 C 33.52 305.90 26.95 305.93 20.38 305.88 C 20.49 301.45 20.48 297.03 20.51 292.62 Z" />
<path fill="#ffffff" d=" M 40.88 292.62 C 47.85 292.61 54.82 292.56 61.79 292.67 C 61.78 297.16 61.79 301.64 61.75 306.13 C 63.24 306.02 64.73 305.91 66.23 305.82 C 67.03 310.17 67.66 314.56 68.41 318.93 C 66.20 319.06 63.98 319.14 61.77 319.22 C 61.78 323.63 61.77 328.05 61.78 332.47 C 54.82 332.52 47.85 332.48 40.88 332.47 C 40.88 328.02 40.88 323.58 40.88 319.13 C 34.05 319.15 27.22 319.11 20.38 319.16 C 20.28 314.73 20.28 310.30 20.38 305.88 C 26.95 305.93 33.52 305.90 40.08 305.89 C 40.35 305.54 40.89 304.84 41.16 304.49 C 40.81 300.54 40.85 296.58 40.88 292.62 Z" />
<path fill="#ffffff" d=" M 246.87 292.65 C 254.31 292.57 261.75 292.47 269.18 292.74 C 264.59 295.04 259.27 295.06 254.43 296.63 C 251.39 297.78 247.64 295.81 246.87 292.65 Z" />
<path fill="#ffffff" d=" M 288.94 292.61 C 295.71 292.60 302.48 292.60 309.24 292.61 C 309.40 297.04 309.44 301.47 309.40 305.90 C 302.59 305.90 295.78 305.90 288.97 305.90 C 288.97 310.28 288.97 314.65 288.97 319.03 C 284.31 319.03 279.66 319.05 275.00 319.09 C 272.89 317.59 270.58 316.41 268.16 315.50 C 268.27 314.98 268.47 313.93 268.57 313.41 C 273.05 312.48 277.78 312.76 282.08 311.09 C 284.39 310.33 285.06 307.89 285.99 305.93 C 286.73 305.92 288.21 305.90 288.95 305.89 C 288.94 301.46 288.94 297.03 288.94 292.61 Z" />
<path fill="#8f8ecf" d=" M 309.24 292.61 L 309.68 292.61 C 309.58 297.04 309.57 301.47 309.57 305.90 C 309.56 310.31 309.58 314.73 309.59 319.14 C 309.57 323.59 309.57 328.04 309.68 332.49 L 309.25 332.49 C 309.43 328.07 309.45 323.65 309.37 319.23 C 302.56 319.11 295.75 319.17 288.94 319.19 C 284.30 319.20 279.65 319.22 275.00 319.09 C 279.66 319.05 284.31 319.03 288.97 319.03 C 295.77 319.03 302.57 319.06 309.37 319.01 C 309.39 314.64 309.38 310.27 309.40 305.90 C 309.44 301.47 309.40 297.04 309.24 292.61 Z" />
<path fill="#000000" d=" M 309.68 292.61 C 316.53 292.60 323.39 292.60 330.24 292.62 C 330.25 297.02 330.24 301.43 330.25 305.83 C 323.36 305.97 316.46 305.88 309.57 305.90 C 309.57 301.47 309.58 297.04 309.68 292.61 Z" />
<path fill="#ffffff" d=" M 330.24 292.62 C 336.83 292.66 343.42 292.44 350.00 292.72 L 350.00 305.90 C 343.44 305.90 336.88 305.90 330.32 305.90 C 330.31 310.29 330.31 314.69 330.32 319.09 C 336.88 319.07 343.44 319.08 350.00 319.08 L 350.00 332.49 C 343.41 332.49 336.83 332.50 330.24 332.47 C 330.25 328.04 330.24 323.62 330.25 319.20 C 323.37 319.08 316.48 319.15 309.59 319.14 C 309.58 314.73 309.56 310.31 309.57 305.90 C 316.46 305.88 323.36 305.97 330.25 305.83 C 330.24 301.43 330.25 297.02 330.24 292.62 Z" />
<path fill="#000000" d=" M 199.61 306.08 C 201.18 302.36 202.30 297.07 206.86 296.06 C 212.74 295.98 218.57 297.82 223.62 300.80 C 222.98 305.41 221.01 309.67 219.73 314.12 C 217.52 320.38 215.96 326.85 214.20 333.24 C 212.84 335.15 210.35 333.66 208.54 333.46 C 208.49 331.93 208.45 330.40 208.42 328.87 C 205.11 329.31 201.65 329.27 198.52 330.55 C 197.59 331.61 197.19 333.18 195.90 333.89 C 194.30 333.68 192.05 333.75 191.33 331.97 C 192.89 323.01 196.57 314.60 199.61 306.08 Z" />
<path fill="#000000" d=" M 230.62 297.81 C 236.84 293.39 245.16 297.14 250.09 301.83 C 258.60 299.46 267.18 296.89 276.07 296.53 C 277.42 296.49 279.14 296.81 279.55 298.33 C 280.37 301.37 280.57 304.76 279.57 307.78 C 274.58 309.93 268.92 309.37 263.68 310.56 C 262.90 313.57 261.97 316.54 260.96 319.48 C 263.68 319.76 267.83 317.72 269.48 320.81 C 269.88 321.99 269.88 323.25 270.04 324.49 C 266.47 325.42 262.83 326.03 259.16 326.33 C 258.96 327.16 258.57 328.82 258.37 329.65 C 261.86 329.35 267.41 327.54 268.47 332.39 C 263.06 333.18 256.25 335.79 251.70 331.55 C 251.22 325.69 250.81 319.79 250.46 313.91 C 249.29 316.24 248.51 319.04 246.21 320.55 C 244.11 320.05 241.73 319.23 240.65 317.19 C 240.01 314.24 240.74 311.18 240.21 308.22 C 238.07 307.23 236.88 309.31 235.78 310.74 C 232.38 315.49 229.83 321.12 229.72 327.04 C 229.61 328.83 230.61 330.43 231.78 331.71 C 235.13 330.01 238.55 326.64 242.58 328.65 C 243.10 330.35 241.40 331.42 240.25 332.28 C 235.86 335.26 229.93 334.85 225.45 332.31 C 221.09 329.52 220.60 323.66 220.71 318.96 C 221.50 311.15 224.25 302.82 230.62 297.81 Z" />
<path fill="#ffffff" d=" M 166.64 306.35 C 170.76 304.75 175.69 303.01 179.79 305.62 C 177.96 313.01 170.22 316.77 163.64 319.17 C 164.29 315.75 165.17 312.38 166.17 309.05 C 166.28 308.37 166.52 307.02 166.64 306.35 Z" />
<path fill="#ffffff" d=" M 87.85 305.43 C 90.76 304.92 94.29 304.08 96.77 306.22 C 99.62 309.04 98.97 313.56 97.65 316.97 C 95.44 323.09 89.94 327.44 83.92 329.49 C 84.84 321.41 86.38 313.42 87.85 305.43 Z" />
<path fill="#ffffff" d=" M 126.91 305.28 C 129.79 304.91 133.32 304.09 135.62 306.40 C 138.21 308.79 137.86 312.78 136.83 315.83 C 134.82 322.47 129.08 327.48 122.55 329.48 C 123.80 321.38 124.83 313.22 126.91 305.28 Z" />
<path fill="#000000" d=" M 0.00 305.90 C 6.75 305.90 13.50 305.89 20.25 305.91 C 20.13 310.29 20.12 314.68 20.25 319.07 C 13.50 319.09 6.75 319.08 0.00 319.08 L 0.00 305.90 Z" />
<path fill="#000000" d=" M 40.95 308.83 C 40.65 307.80 40.78 305.91 42.23 305.87 C 48.70 305.89 55.17 305.92 61.64 305.89 C 61.85 310.28 61.76 314.68 61.76 319.08 C 54.88 319.11 47.99 319.01 41.10 319.14 C 41.12 315.70 41.17 312.26 40.95 308.83 Z" />
<path fill="#000000" d=" M 169.66 307.59 C 172.02 306.92 174.41 306.36 176.81 305.88 C 174.92 309.58 171.79 312.38 168.18 314.35 C 168.56 312.07 169.11 309.83 169.66 307.59 Z" />
<path fill="#000000" d=" M 288.97 305.90 C 295.78 305.90 302.59 305.90 309.40 305.90 C 309.38 310.27 309.39 314.64 309.37 319.01 C 302.57 319.06 295.77 319.03 288.97 319.03 C 288.97 314.65 288.97 310.28 288.97 305.90 Z" />
<path fill="#000000" d=" M 330.32 305.90 C 336.88 305.90 343.44 305.90 350.00 305.90 L 350.00 319.08 C 343.44 319.08 336.88 319.07 330.32 319.09 C 330.31 314.69 330.31 310.29 330.32 305.90 Z" />
<path fill="#000000" d=" M 90.91 307.57 C 91.61 305.91 93.36 307.40 94.59 307.44 C 96.81 312.52 94.31 317.87 91.13 321.88 C 90.45 321.85 89.09 321.80 88.41 321.77 C 89.45 317.08 90.11 312.31 90.91 307.57 Z" />
<path fill="#000000" d=" M 129.87 306.59 C 131.34 307.05 133.41 306.97 133.82 308.89 C 135.20 313.20 133.17 317.98 130.25 321.21 C 129.46 322.15 128.46 322.34 127.25 321.80 C 128.25 316.75 128.81 311.63 129.87 306.59 Z" />
<path fill="#ffffff" d=" M 209.90 310.46 C 209.99 310.47 210.15 310.49 210.24 310.49 C 209.13 314.96 209.31 319.62 208.51 324.14 C 206.11 324.25 203.72 324.37 201.33 324.48 C 204.28 319.86 206.57 314.83 209.90 310.46 Z" />
<path fill="#000000" d=" M 233.05 327.67 C 233.24 323.93 233.40 319.21 236.99 317.02 C 238.85 321.11 243.51 322.52 247.69 322.43 C 247.74 324.60 247.82 326.76 247.80 328.93 C 246.12 328.18 244.59 327.17 242.92 326.41 C 239.61 325.32 236.19 326.60 233.05 327.67 Z" />
<path fill="#ffffff" d=" M 0.00 319.08 C 6.75 319.08 13.50 319.09 20.25 319.07 C 20.37 323.54 20.32 328.01 20.29 332.48 C 13.53 332.39 6.75 332.72 0.00 332.30 L 0.00 319.08 Z" />
<path fill="#000000" d=" M 20.38 319.16 C 27.22 319.11 34.05 319.15 40.88 319.13 C 40.88 323.58 40.88 328.02 40.88 332.47 C 34.09 332.49 27.31 332.50 20.52 332.48 C 20.48 328.04 20.49 323.60 20.38 319.16 Z" />
<path fill="#000000" d=" M 309.59 319.14 C 316.48 319.15 323.37 319.08 330.25 319.20 C 330.24 323.62 330.25 328.04 330.24 332.47 C 323.39 332.49 316.53 332.50 309.68 332.49 C 309.57 328.04 309.57 323.59 309.59 319.14 Z" />
<path fill="#ffffff" d=" M 288.94 319.19 C 295.75 319.17 302.56 319.11 309.37 319.23 C 309.45 323.65 309.43 328.07 309.25 332.49 C 302.48 332.49 295.71 332.48 288.94 332.49 C 288.94 328.06 288.94 323.62 288.94 319.19 Z" />
<path fill="#ffffff" d=" M 178.73 325.11 C 181.01 324.14 183.26 323.09 185.50 322.02 C 185.51 324.99 185.51 327.97 185.49 330.94 C 183.25 328.97 180.99 327.04 178.73 325.11 Z" />
<path fill="#ffffff" d=" M 140.69 332.08 C 141.72 330.95 142.94 330.45 144.37 330.56 C 144.37 331.01 144.36 331.91 144.36 332.36 C 143.05 332.97 141.83 332.87 140.69 332.08 Z" />
<path fill="#8f8ecf" d=" M 102.36 332.12 L 102.52 332.13 L 102.51 332.30 C 102.47 332.25 102.40 332.17 102.36 332.12 Z" />
</svg>
