<?xml version="1.0" encoding="UTF-8" standalone="no"?>
<svg
   xmlns:dc="http://purl.org/dc/elements/1.1/"
   xmlns:cc="http://creativecommons.org/ns#"
   xmlns:rdf="http://www.w3.org/1999/02/22-rdf-syntax-ns#"
   xmlns:svg="http://www.w3.org/2000/svg"
   xmlns="http://www.w3.org/2000/svg"
   xmlns:sodipodi="http://sodipodi.sourceforge.net/DTD/sodipodi-0.dtd"
   xmlns:inkscape="http://www.inkscape.org/namespaces/inkscape"
   width="766pt"
   height="397pt"
   viewBox="0 0 766 397"
   version="1.1"
   id="svg2"
   inkscape:version="0.48.0 r9654">
  <metadata
     id="metadata86">
    <rdf:RDF>
      <cc:Work
         rdf:about="">
        <dc:format>image/svg+xml</dc:format>
        <dc:type
           rdf:resource="http://purl.org/dc/dcmitype/StillImage" />
        <dc:title />
      </cc:Work>
    </rdf:RDF>
  </metadata>
  <defs
     id="defs84" />
  <sodipodi:namedview
     pagecolor="#ffffff"
     bordercolor="#666666"
     borderopacity="1"
     objecttolerance="10"
     gridtolerance="10"
     guidetolerance="10"
     inkscape:pageopacity="0"
     inkscape:pageshadow="2"
     inkscape:window-width="1920"
     inkscape:window-height="1018"
     id="namedview82"
     showgrid="false"
     inkscape:zoom="0.64"
     inkscape:cx="620.28639"
     inkscape:cy="347.07034"
     inkscape:window-x="-8"
     inkscape:window-y="-8"
     inkscape:window-maximized="1"
     inkscape:current-layer="svg2" />
  <flowRoot
     xml:space="preserve"
     id="flowRoot3071"
     style="font-size:22px;font-style:normal;font-weight:normal;line-height:125%;letter-spacing:0px;word-spacing:0px;fill:#000000;fill-opacity:1;stroke:none;font-family:andy;-inkscape-font-specification:andy"
     transform="matrix(12.328301,0,0,14.691397,8268.1196,3018.8862)"><flowRegion
       id="flowRegion3073"><rect
         id="rect3075"
         width="55.854168"
         height="53.859375"
         x="-628.35938"
         y="-197.9375"
         style="font-family:andy;-inkscape-font-specification:andy" /></flowRegion><flowPara
       id="flowPara3077">L</flowPara></flowRoot>  <g
     id="g3106"
     transform="matrix(0.98522855,-0.1712446,0.1712446,0.98522855,-78.804449,125.84124)">
    <path
       style="fill:#040404"
       inkscape:connector-curvature="0"
       id="path14"
       d="m 418.84,-231.25 3.58,0 c 19.64,0.56 39.32,3.82 57.65,11.05 35.46,13.27 65.94,39.25 84.96,71.97 12.15,20.41 19.32,43.53 22.1,67.069999 9.19,8.52 15.39,20.42 16.08,33.01 1.7,18.8 -8.87,38.02 -25.66,46.6200003 -0.96,0.53999997 -2.06,1.08999997 -2.44,2.21999997 -3.8,7.99000003 -7.37,16.12999973 -12.32,23.50999973 21.29,4.05 42.42,12.39 58.43,27.35 9.55,9.22 17.63,20.96 19.48,34.36 0.77,5.06 -0.39,10.05 -1.59,14.930001 1.75,10.42 -2.06,21.19 -9.25,28.79 -9.61,10.27 -22.88,16.21 -36.22,19.96 -14.14,3.85 -28.92,5.21 -43.54,4.41 -10.7,-0.67 -21.26,-2.57 -31.87,-3.96 -19.68,-2.65 -39.24,-6.05 -58.75,-9.72 -5.74,-1.38 -11.48,-2.82 -17.26,-4.06 -0.22,-0.36 -0.66,-1.09 -0.87,-1.46 -1.92,-3.42 -3.85,-6.83 -5.54,-10.36 -1.51,-3.49 -2.89,-7.05 -3.77,-10.75 -0.89,-3.5 -1.32,-7.08 -1.6,-10.66 -23.74,1.55 -47.83,-2.16 -70,-10.820001 -7.35,-2.34 -13.77,-6.9 -21.33,-8.69 l 5.48,3.23 c -1.56,-0.3 -3.13,-0.55 -4.69,-0.76 -2.62,8.75 -5.65,17.430001 -9.9,25.550001 -1.79,3.52 -3.82,6.91 -6.12,10.12 -2.17,3.17 -4.61,6.13 -7.03,9.09 -2.98,3.37 -6.21,6.54 -9.7,9.38 -6.85,5.24 -14.18,10.05 -22.35,12.96 -6.03,2.1 -12.44,3.44 -18.85,2.72 -2.41,-0.16 -4.88,-1.26 -7.22,-0.21 -8.93,2.98 -19.01,3.15 -27.69,-0.74 -6.09,-2.64 -11.22,-7.06 -15.43,-12.12 -3.56,-4.2 -6.3,-9.01 -8.82,-13.88 -6,-13.11 -9.26,-27.3 -11.57,-41.480001 -0.08,-0.51 -0.26,-1.52 -0.35,-2.02 -0.91,-5.89 -1.11,-11.86 -1.7,-17.79 -0.26,-8.68 -0.61,-17.37 -0.28,-26.05 0.95,-23.37 4.05,-47.2799997 14.5,-68.49 4.99,-2.6 9.81,-5.56 15.07,-7.61 2.57,-1.04 5.26,-1.89 7.5,-3.58 -1.47,-18.86 8.69,-37.76 24.78,-47.52 C 261.03,-134.56 290.15,-179.92 332.14,-205.75 c 4.42,-2.65 8.74,-5.49 13.47,-7.57 22.59,-11.61 47.9,-17.35 73.23,-17.93 z" />
    <path
       style="fill:#fefefe"
       inkscape:connector-curvature="0"
       id="path22"
       d="m 328.75,-189.49 c 33.44,-24.89 77.23,-35.04 118.25,-27.82 30.1,5.11 58.89,19.24 80.69,40.69 10.79,21.2 18.35,44.34 19.42,68.24 -3.25,-4.52 -9.03,-8.33 -14.73,-6.18 -6.68,2.61 -10.27,9.5 -12.77,15.809999 -5.48,15.45 -5.6,32.69 -1.15,48.41 2.47,7.63 6.24,16.11 14.17,19.36 -15.83,34.9900003 -44.83,63.71 -79.78,79.54 -39.48,18.13 -86.39,19.3 -126.67,2.98 -5.82,-1.96 -10.93,-5.61 -16.87,-7.19 -0.16,-0.04 -0.46,-0.12 -0.62,-0.16 -9.98,-9.9 -17.98,-21.55 -25,-33.68 11.49,-0.5099997 22.92,-4.7599997 31.55,-12.4499997 18.46,-15.0300003 23.72,-43.6300003 11.74,-64.2100003 -10.75,-20.9 -37.18,-31.94 -59.59,-24.88 C 274.1,-130.13 296.63,-166.22 328.75,-189.49 z" />
    <path
       style="fill:#c8c8c8"
       inkscape:connector-curvature="0"
       id="path26"
       d="m 527.69,-176.62 c 28.17,25.96 45.5,63.18 48.16,101.349999 1.56,20.92 -1.14,42.18 -7.97,62.03 -11.83,34.83 -36.56,65.07 -68.31,83.62 -34.06,20.38 -76.14,26.53 -114.7,17.36 -26.66,-6.23 -51.59,-19.71 -71.35,-38.67 -1.42,-1.52 -3.68,-2.6 -4.21,-4.72 5.94,1.58 11.05,5.23 16.87,7.19 40.28,16.32 87.19,15.15 126.67,-2.98 34.95,-15.83 63.95,-44.5499997 79.78,-79.54 7.64,2.28 14,-4.34 17.11,-10.56 7.26,-14.61 8.04,-31.77 5.13,-47.61 -1.39,-6.8 -3.66,-13.559999 -7.76,-19.229999 -1.07,-23.9 -8.63,-47.04 -19.42,-68.24 z" />
    <path
       style="fill:#040404"
       inkscape:connector-curvature="0"
       id="path32"
       d="m 481.15,-121.15 c 6.69,-1.39 12.47,3.69 15.91,8.89 7.37,11.51 9.53,25.519999 9.84,38.949999 -0.19,13.59 -2.26,27.77 -9.59,39.48 -3.03,4.59 -7.46,9.05 -13.24,9.47 -6.31,0.42 -11.45,-4.31 -14.67,-9.25 -7.3,-11.44 -9.46,-25.35 -9.72,-38.69 0.12,-13.72 2.24,-28.039999 9.72,-39.819999 2.8,-4.11 6.62,-8.17 11.75,-9.03 z" />
    <path
       style="fill:#040404"
       inkscape:connector-curvature="0"
       id="path34"
       d="m 532.38,-114.56 c 5.7,-2.15 11.48,1.66 14.73,6.18 4.1,5.67 6.37,12.429999 7.76,19.229999 2.91,15.84 2.13,33 -5.13,47.61 -3.11,6.22 -9.47,12.84 -17.11,10.56 -7.93,-3.25 -11.7,-11.73 -14.17,-19.36 -4.45,-15.72 -4.33,-32.96 1.15,-48.41 C 522.11,-105.06 525.7,-111.95 532.38,-114.56 z" />
    <path
       style="fill:#fefefe"
       inkscape:connector-curvature="0"
       id="path36"
       d="m 250.96,-67.280001 c 12.07,-14.99 35.36,-18.69 51.58,-8.41 l 0.01,0.42 c 1.04,14.13 -2.69,28.79 -11.72,39.88 -9.43,12.03 -24.04,19.88 -39.34,20.75 -13.14,-14.24 -13.45,-38.18 -0.53,-52.64 z" />
    <path
       style="fill:#c8c8c8"
       inkscape:connector-curvature="0"
       id="path38"
       d="m 302.55,-75.270001 c 6.97,3.42 12.12,10.07 15.54,16.96 5.16,11.06 4.99,24.51 -0.68,35.34 -4.91,9.78 -14.05,17.3500003 -24.59,20.2900003 -14.55,4.49 -31.39,-0.47 -41.33,-11.9600003 15.3,-0.87 29.91,-8.72 39.34,-20.75 9.03,-11.09 12.76,-25.75 11.72,-39.88 z" />
    <path
       style="fill:#c8c8c8"
       inkscape:connector-curvature="0"
       id="path40"
       d="m 587.91,-61.260001 c 6.88,13.54 4.43,31.16 -6.15,42.12 4.03,-13.67 5.73,-27.91 6.15,-42.12 z" />
    <path
       style="fill:#fefefe"
       inkscape:connector-curvature="0"
       id="path48"
       d="m 216.41,-18.710001 c 2.22,-1.18 4.44,-2.38 6.64,-3.59 -6.01,19.4200003 -7.78,39.86 -8.24,60.1 -0.05,14.71 0.7,29.46 2.98,44.01 -4.13,-2.19 -8.2,-4.5 -12.35,-6.64 -1.64,-14.72 -1.44,-29.59 -0.45,-44.35 1.65,-16.88 4.01,-34.0899997 11.42,-49.53 z" />
    <path
       style="fill:#fefefe"
       inkscape:connector-curvature="0"
       id="path50"
       d="m 234.35,-20.150001 c 5.52,12.5900003 16.32,22.6800003 29.19,27.4600003 2.3,0.97 5.26,0.93 7.07,2.7399997 11.16,22.64 27.49,42.76 47.46,58.21 -6.91,16.85 -19.63,31.27 -35.77,39.780001 -9.86,5.31 -21.32,9.14 -32.62,7.03 -4.79,-0.77 -9.05,-3.16 -13.42,-5.11 -5.94,-17.470001 -8.41,-35.900001 -9.54,-54.250001 -1.08,-25.45 0.31,-51.3299997 7.63,-75.86 z" />
    <path
       style="fill:#c8c8c8"
       inkscape:connector-curvature="0"
       id="path54"
       d="m 556.39,33.869999 c 20.28,3.37 40.69,10.42 56.27,24.27 8.22,7.64 15.54,17.3 17.37,28.63 1.38,8.54 -3.38,16.850001 -10.11,21.800001 -11.06,8.35 -25,11.66 -38.52,13.35 -12.74,1.39 -25.64,0.93 -38.32,-0.81 -31.49,-3.5 -62.7,-9.05 -94,-13.87 -1.12,-1.88 -2.18,-3.79 -3.18,-5.73 43.98,-6.310001 84.73,-31.510001 110.49,-67.640001 z" />
    <path
       style="fill:#c8c8c8"
       inkscape:connector-curvature="0"
       id="path60"
       d="m 318.07,68.259999 c 3.93,2.86 7.66,6.01 11.86,8.49 -4.03,20.71 -13.74,41.060001 -30.41,54.520001 -7.75,6.03 -16.53,11.47 -26.42,12.88 -7.25,1.18 -14.8,-1.31 -20.19,-6.21 -8.27,-7.35 -13.16,-17.68 -16.65,-27.98 4.37,1.95 8.63,4.34 13.42,5.11 11.3,2.11 22.76,-1.72 32.62,-7.03 16.14,-8.510001 28.86,-22.930001 35.77,-39.780001 z" />
    <path
       style="fill:#c8c8c8"
       inkscape:connector-curvature="0"
       id="path64"
       d="m 205.44,75.169999 c 4.15,2.14 8.22,4.45 12.35,6.64 1.25,9.78 3.74,19.330001 6.4,28.810001 4.27,13.16 10.31,26.37 20.77,35.78 -8.14,-0.33 -15.57,-4.77 -20.5,-11.11 -8.92,-11.07 -12.72,-25.08 -15.94,-38.660001 -1.15,-7.13 -2.65,-14.23 -3.08,-21.46 z" />
    <path
       style="fill:#c8c8c8"
       inkscape:connector-curvature="0"
       id="path72"
       d="m 616.45,123.26 c 3.34,-1.8 6.78,-3.57 9.63,-6.11 -7.03,10.79 -19,17.02 -30.94,20.88 -13.25,4.23 -27.25,5.91 -41.13,5.47 -11.79,-0.42 -23.41,-2.61 -35.09,-4.1 -23.39,-3.41 -46.8,-6.96 -69.79,-12.51 -1.82,-3.11 -3.49,-6.3 -4.8,-9.65 35.83,5.63 71.6,11.95 107.71,15.58 21.75,1.69 44.49,-0.04 64.41,-9.56 z" />
  </g>
  <flowRoot
     xml:space="preserve"
     id="flowRoot3063"
     style="font-size:22px;font-style:normal;font-weight:normal;line-height:125%;letter-spacing:0px;word-spacing:0px;fill:#000000;fill-opacity:1;stroke:none;font-family:arial;-inkscape-font-specification:arial"
     transform="matrix(13.699661,0,0,13.699661,8370.1083,-520.79984)"><flowRegion
       id="flowRegion3065"><rect
         id="rect3067"
         width="460.79688"
         height="458.80209"
         x="-586.46875"
         y="49.416668" /></flowRegion><flowPara
       id="flowPara3069"
       style="font-family:andy;-inkscape-font-specification:andy">X</flowPara></flowRoot>  <flowRoot
     xml:space="preserve"
     id="flowRoot3063-4"
     style="font-size:22px;font-style:normal;font-weight:normal;line-height:125%;letter-spacing:0px;word-spacing:0px;fill:#000000;fill-opacity:1;stroke:none;font-family:arial;-inkscape-font-specification:arial"
     transform="matrix(13.699661,0,0,13.699661,8178.2336,-491.61942)"><flowRegion
       id="flowRegion3065-4"><rect
         id="rect3067-9"
         width="460.79688"
         height="458.80209"
         x="-586.46875"
         y="49.416668" /></flowRegion><flowPara
       id="flowPara3069-0"
       style="font-family:andy;-inkscape-font-specification:andy">X</flowPara></flowRoot></svg>
