<?xml version="1.0" encoding="UTF-8" standalone="no"?>
<svg
   xmlns:dc="http://purl.org/dc/elements/1.1/"
   xmlns:cc="http://creativecommons.org/ns#"
   xmlns:rdf="http://www.w3.org/1999/02/22-rdf-syntax-ns#"
   xmlns:svg="http://www.w3.org/2000/svg"
   xmlns="http://www.w3.org/2000/svg"
   xmlns:sodipodi="http://sodipodi.sourceforge.net/DTD/sodipodi-0.dtd"
   xmlns:inkscape="http://www.inkscape.org/namespaces/inkscape"
   width="350pt"
   height="350pt"
   viewBox="0 0 350 350"
   version="1.1"
   id="svg2"
   inkscape:version="0.48.0 r9654">
  <metadata
     id="metadata146">
    <rdf:RDF>
      <cc:Work
         rdf:about="">
        <dc:format>image/svg+xml</dc:format>
        <dc:type
           rdf:resource="http://purl.org/dc/dcmitype/StillImage" />
        <dc:title></dc:title>
      </cc:Work>
    </rdf:RDF>
  </metadata>
  <defs
     id="defs144" />
  <sodipodi:namedview
     pagecolor="#ffffff"
     bordercolor="#666666"
     borderopacity="1"
     objecttolerance="10"
     gridtolerance="10"
     guidetolerance="10"
     inkscape:pageopacity="0"
     inkscape:pageshadow="2"
     inkscape:window-width="1920"
     inkscape:window-height="1018"
     id="namedview142"
     showgrid="false"
     inkscape:zoom="1"
     inkscape:cx="159.66163"
     inkscape:cy="227.92032"
     inkscape:window-x="-8"
     inkscape:window-y="-8"
     inkscape:window-maximized="1"
     inkscape:current-layer="svg2" />
  <path
     d=" M 0.00 0.00 L 350.00 0.00 L 350.00 292.72 C 343.42 292.44 336.83 292.66 330.24 292.62 C 323.39 292.60 316.53 292.60 309.68 292.61 L 309.24 292.61 C 302.48 292.60 295.71 292.60 288.94 292.61 C 282.36 292.64 275.77 292.50 269.18 292.74 C 261.75 292.47 254.31 292.57 246.87 292.65 C 240.33 292.46 233.79 292.47 227.26 292.63 C 222.87 292.63 218.48 292.61 214.10 292.48 C 214.34 292.63 214.82 292.92 215.06 293.07 C 207.86 292.25 200.60 293.00 193.40 292.40 C 190.07 288.89 186.76 284.96 181.65 284.14 C 182.41 283.09 183.16 282.05 183.92 281.01 C 181.40 281.96 178.90 282.97 176.36 283.85 C 174.10 284.02 171.84 284.20 169.61 284.54 C 170.49 280.10 171.51 275.68 172.33 271.22 C 168.73 274.78 165.54 278.71 162.07 282.40 C 160.47 277.49 159.13 272.50 157.33 267.67 C 156.18 272.64 155.29 277.67 154.14 282.65 C 150.22 279.44 146.67 275.81 142.77 272.57 C 144.16 277.44 145.90 282.20 147.45 287.03 C 145.86 286.81 144.27 286.60 142.69 286.33 C 131.73 281.84 119.48 284.42 109.33 289.75 C 98.89 281.49 83.98 282.97 72.75 288.78 C 69.29 290.59 65.98 293.32 61.79 292.67 C 54.82 292.56 47.85 292.61 40.88 292.62 C 34.09 292.61 27.30 292.59 20.51 292.62 C 20.48 297.03 20.49 301.45 20.38 305.88 C 20.28 310.30 20.28 314.73 20.38 319.16 C 20.49 323.60 20.48 328.04 20.52 332.48 C 27.31 332.50 34.09 332.49 40.88 332.47 C 47.85 332.48 54.82 332.52 61.78 332.47 C 65.72 332.68 70.25 331.47 73.57 334.24 C 77.83 337.35 83.40 338.57 88.57 337.47 C 93.47 336.59 97.91 334.25 102.36 332.12 C 102.40 332.17 102.47 332.25 102.51 332.30 L 102.52 332.13 C 106.18 332.33 110.15 332.16 113.12 334.71 C 121.58 340.62 132.70 337.07 140.69 332.08 C 141.83 332.87 143.05 332.97 144.36 332.36 C 149.20 331.33 151.29 337.07 155.88 337.19 C 159.70 338.25 163.66 337.33 166.74 334.89 C 172.59 338.04 181.24 338.86 185.83 333.17 C 188.90 336.61 193.72 338.20 198.23 337.24 C 200.15 336.66 201.34 334.88 202.74 333.57 C 206.69 338.92 216.22 339.29 220.10 333.68 C 227.92 339.19 239.24 339.32 246.55 332.83 C 249.32 335.13 252.46 337.34 256.21 337.41 C 260.50 337.48 264.82 336.93 269.00 335.96 C 271.60 335.38 273.17 332.48 275.95 332.51 C 280.28 332.31 284.61 332.56 288.94 332.49 C 295.71 332.48 302.48 332.49 309.25 332.49 L 309.68 332.49 C 316.53 332.50 323.39 332.49 330.24 332.47 C 336.83 332.50 343.41 332.49 350.00 332.49 L 350.00 350.00 L 0.00 350.00 L 0.00 332.30 C 6.75 332.72 13.53 332.39 20.29 332.48 C 20.32 328.01 20.37 323.54 20.25 319.07 C 20.12 314.68 20.13 310.29 20.25 305.91 C 20.37 301.48 20.32 297.04 20.29 292.61 C 13.53 292.60 6.76 292.60 0.00 292.60 L 0.00 0.00 Z"
     id="path4"
     fill="#4543af" />
  <path
     d=" M 43.23 15.62 C 45.66 19.13 47.34 23.07 49.62 26.66 C 49.84 26.67 50.29 26.68 50.51 26.69 C 53.11 23.36 55.10 19.59 57.85 16.37 C 57.69 20.89 57.30 25.41 57.08 29.93 C 61.17 28.18 65.21 26.29 69.40 24.81 C 67.11 28.63 64.22 32.04 61.78 35.76 C 66.26 36.52 70.77 37.15 75.19 38.22 C 71.01 39.87 66.77 41.35 62.62 43.07 C 65.60 46.32 69.10 49.04 72.19 52.17 C 67.74 51.73 63.43 50.54 59.03 49.86 C 60.13 54.09 61.41 58.29 62.26 62.58 C 58.75 59.89 55.99 56.38 52.45 53.72 C 51.06 57.88 49.87 62.10 48.47 66.25 C 46.88 62.06 46.29 57.59 45.17 53.26 C 41.57 55.87 38.34 58.95 34.67 61.46 C 35.93 57.20 37.59 53.08 39.06 48.90 C 34.62 49.35 30.20 49.95 25.74 50.14 C 29.08 47.27 32.71 44.76 36.19 42.06 C 32.24 39.72 27.91 38.09 24.03 35.63 C 28.57 35.38 33.12 35.13 37.63 34.50 C 35.35 30.65 32.87 26.91 30.80 22.94 C 34.89 24.87 38.78 27.19 42.84 29.17 C 42.97 24.65 43.01 20.13 43.23 15.62 Z"
     id="path6"
     fill="#8f8ecf" />
  <path
     d="m 310.90924,6.5957036 c 1.39,2.88 2.59,5.8500004 3.63,8.8800004 2.77,-1.62 5.43,-3.4 8.04,-5.26 -0.76,3.15 -1.68,6.27 -2.74,9.33 3.27,0.3 6.54,0.59 9.81,0.91 -2.7,1.86 -5.52,3.54 -8.41,5.1 2.24,2.59 4.65,5.03 7.11,7.42 -3.36,-0.55 -6.73,-1.03 -10.1,-1.48 0.27,3.14 0.51,6.29 0.61,9.44 -2.29,-2.2 -4.43,-4.56 -6.47,-7.01 -1.92,2.7 -3.86,5.37 -5.86,8 -0.14,-3.3 -0.21,-6.6 -0.24,-9.9 -3.14,0.82 -6.29,1.62 -9.46,2.31 1.95,-2.6 3.93,-5.19 5.86,-7.81 -2.87,-1.31 -5.76,-2.6 -8.59,-4.01 3.02,-1.04 6.17,-1.6 9.33,-2.02 -1.19,-3.07 -2.46,-6.1 -3.77,-9.11 2.92,1.45 5.79,3.01 8.63,4.63 0.84,-3.15 1.69,-6.3000004 2.62,-9.4200004 z"
     id="path8"
     inkscape:connector-curvature="0"
     style="fill:#8f8ecf" />
  <path
     fill="#8f8ecf"
     d=" M 154.64 28.95 C 155.72 27.56 156.81 26.16 157.89 24.76 C 158.11 26.42 158.33 28.08 158.55 29.75 C 160.34 29.88 162.14 30.00 163.93 30.14 C 162.76 31.36 161.59 32.58 160.41 33.80 C 161.59 35.17 162.76 36.54 163.93 37.91 C 162.18 37.77 160.43 37.62 158.69 37.47 C 158.27 39.08 157.86 40.69 157.45 42.31 C 156.38 41.01 155.29 39.71 154.20 38.43 C 152.77 39.15 151.33 39.87 149.90 40.59 C 150.25 38.91 150.60 37.23 150.96 35.56 C 149.51 34.79 148.05 34.05 146.58 33.33 C 148.04 32.78 149.51 32.23 150.98 31.68 C 150.77 29.92 150.57 28.17 150.35 26.41 C 151.78 27.26 153.21 28.11 154.64 28.95 Z"
     id="path10" />
  <path
     d="m 208.268,15.264758 c 1.62,-3.56 3.24,-7.1399995 5.2,-10.5399995 0.6,3.87 1.08,7.7499995 1.58,11.6299995 3.48,-1.82 6.89,-3.78 10.53,-5.28 -1.82,3.43 -3.79,6.78 -5.46,10.29 3.85,0.58 7.73,1.02 11.59,1.52 -3.1,2.13 -6.86,3.13 -9.91,5.31 1.55,3.24 5.38,5.27 7.57,8.28 -3.83,-0.53 -7.63,-1.25 -11.42,-1.95 0.66,3.81 1.38,7.61 1.86,11.45 -2.89,-2.45 -5.1,-5.61 -8.13,-7.9 -2.13,3.01 -2.9,6.8 -5.41,9.57 -0.59,-3.66 -0.99,-7.34 -1.5,-11.01 -3.47,1.71 -6.83,3.65 -10.36,5.22 1.67,-3.51 3.58,-6.89 5.37,-10.34 -3.86,-0.47 -7.73,-0.91 -11.57,-1.56 3.4,-1.97 6.99,-3.58 10.52,-5.3 -2.86,-2.68 -5.75,-5.34 -8.34,-8.29 3.84,0.63 7.66,1.4 11.51,2.03 -0.69,-3.71 -1.37,-7.43 -1.82,-11.1899995 2.93,2.48 5.46,5.3699995 8.19,8.0599995 z"
     id="path12"
     inkscape:connector-curvature="0"
     style="fill:#8f8ecf" />
  <path
     d="m 183.64546,91.30221 c 0.56112,-2.751203 1.31542,-5.474801 2.38248,-8.087983 1.02106,2.557974 1.94094,5.143552 2.85161,7.738331 2.41928,-1.453812 4.83855,-2.926028 7.19344,-4.481055 -0.7635,2.613182 -1.60979,5.19876 -2.48367,7.775137 0.69911,0.230034 2.08812,0.699302 2.78723,0.938537 -5.90561,3.156062 -11.38807,7.048233 -16.55778,11.299253 -2.12491,0.19323 -4.24063,0.46007 -6.34715,0.81892 1.73857,-2.17152 3.44954,-4.36144 5.18811,-6.53296 -2.51127,-1.177768 -4.93974,-2.521164 -7.30382,-3.956574 2.65844,-0.607289 5.33528,-1.122565 8.02132,-1.591833 -1.12225,-2.576377 -2.2353,-5.152754 -3.29316,-7.747533 2.50207,1.306591 5.04093,2.557974 7.56139,3.82776 z"
     id="path14"
     inkscape:connector-curvature="0"
     style="fill:#8f8ecf" />
  <path
     d="m 196.37655,95.185177 c 19.77734,-11.060017 43.72172,-13.433964 65.58718,-8.106385 29.60162,7.517499 54.49348,30.962528 64.09699,59.919158 0.46914,1.43541 0.90148,2.88922 1.30622,4.34304 0.67151,2.53037 1.21424,5.09754 1.67418,7.67392 0.21157,1.25138 0.42314,2.51197 0.64391,3.77255 4.78336,1.17777 8.9228,4.01179 12.27115,7.57271 4.89375,5.57601 7.01866,13.75601 4.4706,20.86865 -2.81482,9.12774 -11.60884,15.94593 -21.23075,15.98274 -2.9712,6.20171 -5.71243,12.55984 -9.55751,18.29227 -1.68337,2.25433 -1.56379,5.18036 -1.87655,7.83955 -1.13145,10.43433 -4.68217,21.06188 -12.29875,28.59778 -5.45486,6.07289 -14.56164,7.89476 -22.22421,5.54842 -3.50473,-1.14097 -6.48513,-3.3585 -9.20796,-5.78765 -4.4982,1.17777 -8.9504,2.55797 -13.54978,3.30328 -9.88867,2.0151 -20.04411,2.0519 -30.02477,0.73611 -2.81482,7.05743 -8.1685,13.26834 -15.24235,16.25878 -5.1881,2.24513 -11.50765,2.30033 -16.41059,-0.6993 -6.98186,-3.85537 -11.64564,-10.83919 -14.26729,-18.21867 l -0.29436,-0.76371 c -0.95667,-3.23887 -1.62818,-6.56056 -2.08811,-9.90065 -0.13799,-1.23298 -0.24837,-2.47516 -0.32196,-3.70814 -0.092,-2.00589 -0.11959,-4.01179 -0.15638,-6.01768 -0.51513,-0.50608 -1.03026,-1.01215 -1.54539,-1.51822 -0.7635,-0.74531 -1.5178,-1.49982 -2.2721,-2.25433 -1.81215,-1.84947 -3.53232,-3.77255 -5.1697,-5.76925 -0.66231,-0.82812 -1.31543,-1.65624 -1.95014,-2.50276 -8.36168,-10.97721 -14.1385,-23.84989 -16.89813,-37.36667 -5.74003,-0.53368 -11.29608,-3.04564 -15.16876,-7.37948 -5.08692,-5.37358 -7.36821,-13.40636 -5.27089,-20.57421 1.435,-5.37358 5.1697,-9.83624 9.55751,-13.12112 3.10918,-1.58263 6.35635,-3.08245 9.88867,-3.38609 1.11305,-0.10122 2.2353,-0.17483 3.35755,-0.23003 4.86615,-16.3508 14.82841,-30.91653 27.61469,-42.10536 5.16971,-4.25102 10.65217,-8.143191 16.55778,-11.299253 z"
     id="path16"
     inkscape:connector-curvature="0"
     style="fill:#000000" />
  <path
     d="m 187.7941,104.8926 c 18.14916,-13.433968 41.6704,-19.221614 63.9958,-15.927532 31.2666,4.149807 59.38722,26.831122 69.63464,56.717092 0.47834,11.52008 -0.17477,23.2334 -3.50473,34.33942 -2.64924,8.80569 -5.9332,17.59298 -11.43406,25.05527 -1.87655,-4.60068 -4.58099,-8.8977 -8.2237,-12.3114 -3.88187,-3.97499 -9.50232,-6.50536 -15.12276,-5.57602 -7.4418,1.00295 -13.04385,6.98382 -16.43819,13.30515 -6.66911,12.70706 -7.23023,27.97209 -3.51393,41.66369 -12.17917,4.46265 -25.02064,7.34267 -38.05529,7.03903 -11.83881,-0.092 -23.60403,-2.58558 -34.56895,-7.01143 -4.69137,-1.86787 -8.90441,-4.92272 -13.95453,-5.81525 l -0.11038,-0.0276 c -12.40913,-12.77147 -20.79841,-29.4167 -23.47525,-47.03728 5.30769,-0.82812 10.35781,-3.72654 13.26462,-8.31802 3.6887,-5.55761 3.90028,-13.0475 0.7083,-18.88116 -2.35488,-4.73869 -7.08304,-7.91316 -12.12397,-9.19214 5.05013,-19.148 16.90733,-36.39133 32.92238,-48.02182 z"
     id="path18"
     inkscape:connector-curvature="0"
     style="fill:#ffe673" />
  <path
     fill="#8f8ecf"
     d=" M 27.52 98.83 C 28.58 97.47 29.64 96.11 30.71 94.75 C 30.91 96.46 31.11 98.16 31.31 99.87 C 33.03 99.90 34.75 99.94 36.48 99.98 C 35.39 101.24 34.31 102.50 33.22 103.76 C 34.28 105.12 35.34 106.48 36.40 107.84 C 34.66 107.77 32.92 107.71 31.18 107.64 C 30.85 109.19 30.51 110.75 30.18 112.31 C 29.14 111.02 28.09 109.74 27.01 108.48 C 25.52 109.17 24.02 109.86 22.53 110.56 C 22.99 108.93 23.44 107.29 23.90 105.67 C 22.25 104.93 20.61 104.19 18.96 103.45 C 20.62 102.83 22.27 102.21 23.93 101.59 C 23.59 99.93 23.25 98.26 22.91 96.59 C 24.45 97.33 25.98 98.08 27.52 98.83 Z"
     id="path20" />
  <path
     d="m 292.44803,50.830701 c 3.66,4.46 5.74,9.94 8.69,14.86 3.81,-4.64 6.8,-9.87 10.3,-14.74 -0.16,5.99 -0.83,11.96 -0.98,17.96 5.37,-2.11 10.53,-4.73 15.99,-6.59 -2.96,4.99 -6.93,9.28 -9.94,14.239999 5.78,1 11.59,1.9 17.37,2.91 -5.35,2.52 -11.02,4.25 -16.47,6.53 4.07,4.22 8.73,7.8 12.77,12.04 -5.77,-0.89 -11.43,-2.34 -17.14,-3.49 1.04,5.7 3.12,11.15 4.09,16.87 -4.56,-3.38 -7.76,-8.38 -12.49,-11.449998 -1.175,2.614998 -2.42458,6.259418 -3.223,8.928428 -0.83529,-0.78249 -1.44298,-1.19264 -4.98105,-4.36395 -0.65907,-2.80152 -0.67095,-2.58948 -1.32595,-5.464478 -0.41913,0.132146 -3.62857,1.227678 -4.09085,1.409698 -3.19101,-2.32293 -3.83212,-2.480083 -3.84576,-2.720672 -0.0192,-0.338592 2.02977,-4.434583 2.00894,-5.002473 -0.12,-0.685 -13.2402,-0.821943 -13.27598,-0.837092 -0.7303,-0.309233 -0.45591,-0.187221 -0.85571,-0.372483 2,-1.52 6.55936,-5.50698 8.55936,-7.02698 -6.54168,-4.294424 -6.68394,-4.442349 -14.08,-9.46 4.02,0.05 11.64,0.015 15.7,-0.03 -2.73,-5.159999 -6.21,-9.889999 -8.78,-15.139999 5.26,2.53 10.27,5.54 15.48,8.17 0.35,-5.74 0.28,-11.49 0.52,-17.23 z"
     id="path22"
     inkscape:connector-curvature="0"
     style="fill:#8f8ecf"
     sodipodi:nodetypes="ccccccccccccccccscsccccccc" />
  <path
     d="m 138.01959,138.65233 c 1.54539,-1.69305 2.45607,-4.49946 4.64537,-5.24477 0.40475,2.15312 0.54273,4.35224 0.7543,6.53296 2.49287,-0.0276 4.98573,-0.092 7.4786,-0.16562 -1.61898,1.81266 -3.27476,3.58852 -4.97653,5.33678 0.97507,1.23298 1.95013,2.46596 2.9252,3.70814 -3.53232,0.30364 -6.03533,1.59084 -9.14451,3.17347 -2.88841,-0.7361 -5.99665,1.59283 -8.47112,2.66938 0.66231,-2.30033 1.37062,-4.58227 2.10652,-6.855 -2.2629,-1.03975 -4.5166,-2.0887 -6.76109,-3.18367 2.28129,-0.83732 4.57178,-1.64704 6.86227,-2.44755 -0.56112,-2.38315 -1.14064,-4.7755 -1.71097,-7.15865 2.13412,1.15017 4.23144,2.35554 6.29196,3.63453 z"
     id="path24"
     inkscape:connector-curvature="0"
     style="fill:#8f8ecf"
     sodipodi:nodetypes="ccccccccccccc" />
  <path
     d="m 251.0724,133.98725 c 5.68483,-1.17777 9.6219,3.88297 11.71922,8.43763 2.90681,6.75379 4.11185,14.86938 0.70831,21.67837 -0.85549,1.81267 -2.63085,2.79721 -4.31422,3.69895 3.51392,-6.50536 4.23143,-14.3265 1.4626,-21.24591 -1.82136,-4.95953 -5.07772,-11.24405 -11.1765,-11.17044 0.53353,-0.46926 1.06706,-0.92933 1.60059,-1.3986 z"
     id="path26"
     inkscape:connector-curvature="0"
     style="fill:#c6aa27" />
  <path
     d="m 249.47181,135.38585 c 6.09878,-0.0736 9.35514,6.21091 11.1765,11.17044 2.76883,6.91941 2.05132,14.74055 -1.4626,21.24591 -6.99106,-0.0184 -10.58778,-7.12185 -12.28955,-12.9279 -1.60059,-6.37653 -2.07892,-14.23448 2.57565,-19.48845 z"
     id="path28"
     inkscape:connector-curvature="0"
     style="fill:#504308" />
  <path
     d="m 222.59302,136.92248 c 2.77803,-0.21163 6.02519,-0.6993 8.1869,1.52742 5.67564,5.41959 7.96613,13.76522 7.26703,21.44834 -0.17478,4.31543 -2.03293,9.08173 -6.41154,10.65516 5.06852,-8.24441 4.01986,-19.1296 -1.06706,-27.09797 -1.61898,-2.742 -4.39701,-4.37984 -7.05545,-5.96247 l -0.91988,-0.57048 z"
     id="path30"
     inkscape:connector-curvature="0"
     style="fill:#c6aa27" />
  <path
     d="m 219.25387,143.28061 c 0.61632,-2.35555 1.89495,-4.81231 4.25903,-5.78765 2.65844,1.58263 5.43647,3.22047 7.05545,5.96247 5.08692,7.96837 6.13558,18.85356 1.06706,27.09797 -3.44034,-0.36806 -6.65071,-2.12551 -8.40767,-5.17116 -4.33262,-6.36733 -5.80442,-14.63014 -3.97387,-22.10163 z"
     id="path32"
     inkscape:connector-curvature="0"
     style="fill:#504308" />
  <path
     d="m 321.42454,145.68216 c 2.80562,6.57896 4.09345,13.71921 4.93054,20.79504 1.07625,12.293 -0.0552,24.82523 -3.95547,36.56615 -2.73203,7.94076 -6.23676,15.79871 -11.48926,22.40528 -0.87388,-6.90101 -1.69257,-13.91244 -4.4246,-20.37178 5.50086,-7.46229 8.78482,-16.24958 11.43406,-25.05527 3.32996,-11.10602 3.98307,-22.81934 3.50473,-34.33942 z"
     id="path34"
     inkscape:connector-curvature="0"
     style="fill:#e6cf68" />
  <path
     d="m 327.36694,151.34099 c 2.40088,1.14096 4.80176,2.30954 7.18424,3.48731 -1.83975,1.3986 -3.67031,2.78801 -5.51006,4.18661 -0.45994,-2.57638 -1.00267,-5.14355 -1.67418,-7.67392 z"
     id="path36"
     inkscape:connector-curvature="0"
     style="fill:#4543af" />
  <path
     d="m 133.32822,165.27182 c 2.60325,-8.87009 12.58391,-14.51972 21.5435,-12.3574 5.04093,1.27898 9.76909,4.45345 12.12397,9.19214 0.52433,6.7906 -0.81869,14.27129 -6.27355,18.89037 -4.75576,5.13435 -12.09638,5.83365 -18.67349,6.12809 -7.64418,-3.95658 -11.56285,-13.7008 -8.72043,-21.8532 z"
     id="path38"
     inkscape:connector-curvature="0"
     style="fill:#e4c32b" />
  <path
     d="m 160.72214,180.99693 c 5.45486,-4.61908 6.79788,-12.09977 6.27355,-18.89037 3.19198,5.83366 2.9804,13.32355 -0.7083,18.88116 -2.90681,4.59148 -7.95693,7.4899 -13.26462,8.31802 -3.78069,0.40486 -7.63497,-0.35885 -10.97412,-2.18072 6.57711,-0.29444 13.91773,-0.99374 18.67349,-6.12809 z"
     id="path40"
     inkscape:connector-curvature="0"
     style="fill:#c6aa27" />
  <path
     d="m 326.35508,166.4772 c 5.10531,0.40486 10.04505,2.78801 13.26462,6.8182 4.82015,5.91646 5.42727,14.91538 1.25103,21.34712 -3.7531,6.18331 -11.35128,9.60621 -18.47112,8.40083 3.90028,-11.74092 5.03172,-24.27315 3.95547,-36.56615 z"
     id="path42"
     inkscape:connector-curvature="0"
     style="fill:#c6aa27" />
  <path
     d="m 266.7011,200.49458 c 3.39434,-6.32133 8.99639,-12.3022 16.43819,-13.30515 5.62044,-0.92934 11.24089,1.60103 15.12276,5.57602 -4.20383,-0.45087 -8.53645,-1.45382 -12.71269,-0.27604 -5.88721,1.62863 -10.3854,6.27531 -13.67856,11.22564 -4.56259,7.57271 -6.93587,16.35999 -7.33141,25.17488 -0.39555,6.32132 0.6899,12.58744 1.01186,18.89036 -0.82789,-1.85867 -1.67417,-3.70814 -2.36408,-5.62202 -3.7163,-13.6916 -3.15518,-28.95663 3.51393,-41.66369 z"
     id="path44"
     inkscape:connector-curvature="0"
     style="fill:#e4c32b" />
  <path
     d="m 285.54936,192.48941 c 4.17624,-1.17778 8.50886,-0.17483 12.71269,0.27604 3.64271,3.4137 6.34715,7.71072 8.2237,12.3114 2.73203,6.45934 3.55072,13.47077 4.4246,20.37178 -0.7175,10.39752 -2.35488,21.29191 -8.68363,29.90437 -3.57832,5.02394 -9.02399,9.26576 -15.40793,9.51419 -6.19996,0.43247 -11.8756,-3.22967 -15.80347,-7.74753 -2.30889,-2.79721 -4.07506,-5.99928 -5.46407,-9.33937 -0.32196,-6.30292 -1.40741,-12.56904 -1.01186,-18.89036 0.39554,-8.81489 2.76882,-17.60217 7.33141,-25.17488 3.29316,-4.95033 7.79135,-9.59701 13.67856,-11.22564 z"
     id="path46"
     inkscape:connector-curvature="0"
     style="fill:#c6aa27" />
  <path
     fill="#8f8ecf"
     d=" M 31.26 187.78 C 33.04 184.29 34.67 180.71 36.62 177.31 C 37.22 181.19 37.69 185.10 38.19 189.00 C 41.59 187.15 44.99 185.27 48.52 183.68 C 46.92 187.19 45.02 190.55 43.14 193.92 C 47.11 194.50 51.10 195.00 55.08 195.52 C 51.54 197.40 47.90 199.09 44.31 200.87 C 47.09 203.59 49.94 206.23 52.57 209.09 C 48.69 208.56 44.85 207.77 41.00 207.05 C 41.78 210.99 42.55 214.93 42.94 218.93 C 40.28 216.02 37.63 213.10 34.81 210.33 C 33.08 213.74 31.58 217.28 29.44 220.47 C 28.84 216.69 28.40 212.89 27.87 209.10 C 24.51 210.97 21.14 212.84 17.63 214.43 C 19.20 210.90 21.11 207.54 22.98 204.16 C 19.15 203.63 15.31 203.17 11.50 202.56 C 14.79 200.51 18.35 198.95 21.82 197.25 C 19.03 194.52 16.15 191.88 13.52 188.99 C 17.39 189.56 21.23 190.34 25.08 191.04 C 24.33 187.05 23.56 183.07 23.09 179.04 C 25.76 182.00 28.46 184.94 31.26 187.78 Z"
     id="path48" />
  <path
     d="m 328.08818,257.08055 c 1.21,-2.57 2.51,-5.1 3.95,-7.55 0.49,2.8 0.88,5.61 1.26,8.43 2.58,-1.41 5.19,-2.77 7.83,-4.07 -1.39,2.58 -2.74,5.18 -4.05,7.8 2.72,0.36 5.43,0.77 8.11,1.34 -2.33,1.34 -4.83,2.43 -7.05,3.97 1.82,2.18 3.99,4.04 6.09,5.95 -2.92,-0.37 -5.83,-0.83 -8.73,-1.36 0.43,2.75 0.85,5.49 1.23,8.24 -2.07,-1.9 -4.11,-3.85 -6.1,-5.85 -1.09,2.59 -2.42,5.07 -3.95,7.42 -0.4,-2.7 -0.75,-5.4 -1.06,-8.11 -2.61,1.18 -5.19,2.39 -7.7,3.76 1.25,-2.58 2.49,-5.18 3.77,-7.75 -2.66,-0.33 -5.31,-0.72 -7.94,-1.25 2.3,-1.46 4.69,-2.79 7.2,-3.86 -2.06,-2 -4.07,-4.05 -6.02,-6.15 2.81,0.42 5.6,0.89 8.4,1.38 -0.47,-2.8 -0.87,-5.6 -1.14,-8.42 1.97,2.02 3.93,4.06 5.9,6.08 z"
     id="path50"
     inkscape:connector-curvature="0"
     style="fill:#8f8ecf" />
  <path
     d="m 104.97399,205.23274 c 2.09,4.75 3.08,9.88 4.97,14.71 4.65582,-4.11539 3.86087,-3.37095 11.44584,-10.9134 -0.63,2.9 -3.81584,11.6634 -4.42584,14.5634 5.50888,-1.45289 5.33091,-1.51219 11.46344,-3.58825 -1.83,2.27 -5.17344,8.13825 -6.99344,10.42825 2.32642,0.37406 5.75138,2.02074 12.65134,3.29519 -2.24,0.93 -10.15134,3.03481 -11.83134,4.96481 2.7,3.01 6.08,5.28 9.14,7.9 l 0.32,0.83 -0.35,0.63 c -4.47,-0.4 -8.85,-1.98 -13.29,-2.78 1.36,4.88 3.3,9.58 4.59,14.49 -4.04,-3.05 -7.4,-6.88 -11.35,-10.03 -1.09,4.77 -1.78,9.63 -3.15,14.33 -2.21,-4.45 -2.98,-9.41 -4.83,-14 -3.480001,3.71 -6.590001,7.75 -10.190001,11.34 0.76,-5.07 2.25,-10 3.15,-15.05 -4.96,1.56 -9.76,3.64 -14.86,4.72 3.58,-3.71 7.13,-7.44 10.57,-11.28 -4.96,-1.3 -10.04,-2.03 -15.04,-3.14 4.71,-2.03 9.72,-3.19 14.59,-4.76 -3.6,-3.73 -7.78,-6.81 -11.47,-10.44 5.08,0.81 10.02,2.23 15.03,3.34 -1.17,-4.92 -3.25,-9.55 -4.47,-14.45 4.06,3.04 7.47,6.82 11.350001,10.07 1.01,-5.06 1.99,-10.12 2.98,-15.18 z"
     id="path52"
     inkscape:connector-curvature="0"
     style="fill:#8f8ecf"
     sodipodi:nodetypes="ccccccccccccccccccccccccccc" />
  <path
     d="m 168.68827,233.15015 c 1.63738,1.9967 3.35755,3.91978 5.1697,5.76925 -2.29049,0.75451 -4.59018,1.49982 -6.88987,2.23592 0.56112,-2.66839 1.14064,-5.33678 1.72017,-8.00517 z"
     id="path54"
     inkscape:connector-curvature="0"
     style="fill:#4543af" />
  <path
     d="m 176.6084,236.37062 c 5.05012,0.89253 9.26316,3.94738 13.95453,5.81525 10.96492,4.42585 22.73014,6.91942 34.56895,7.01143 13.03465,0.30364 25.87612,-2.57638 38.05529,-7.03903 0.68991,1.91388 1.53619,3.76335 2.36408,5.62202 1.38901,3.34009 3.15518,6.54216 5.46407,9.33937 -14.66283,5.66803 -30.91705,7.39788 -46.39857,4.57307 -15.95066,-2.32794 -31.01823,-9.70742 -43.05021,-20.35338 -1.70177,-1.60103 -3.38515,-3.23887 -4.95814,-4.96873 z"
     id="path56"
     inkscape:connector-curvature="0"
     style="fill:#e6cf68" />
  <path
     d="m 176.13007,241.17373 c 0.51513,0.50607 1.03026,1.01214 1.54539,1.51822 0.0368,2.00589 0.0644,4.01179 0.15638,6.01768 -2.2537,-0.41406 -4.4982,-0.82812 -6.75189,-1.26059 1.67417,-2.1071 3.36674,-4.18661 5.05012,-6.27531 z"
     id="path58"
     inkscape:connector-curvature="0"
     style="fill:#4543af" />
  <path
     d="m 181.56654,241.33935 c 12.03198,10.64596 27.09955,18.02544 43.05021,20.35338 -2.84242,4.86751 -5.1973,10.22269 -9.73229,13.82962 -4.51659,3.99338 -11.25009,5.76004 -16.92573,3.28488 -6.38394,-2.7144 -10.62457,-8.79649 -13.14503,-15.0534 -2.80562,-7.08504 -3.76229,-14.83257 -3.24716,-22.41448 z"
     id="path60"
     inkscape:connector-curvature="0"
     style="fill:#c6aa27" />
  <path
     d="m 171.83424,255.04936 c 1.5454,-1.77586 4.25903,-1.77586 6.31956,-2.63159 0.45993,3.34009 1.13144,6.66178 2.08811,9.90065 -2.81482,-2.41075 -5.924,-4.49946 -8.40767,-7.26906 z"
     id="path62"
     inkscape:connector-curvature="0"
     style="fill:#4543af" />
  <path
     d="m 83.601311,114.26454 c 1.93,-3.48 3.54,-7.12 5.42,-10.63 0.57,3.94 1.03,7.88 1.52,11.83 3.45,-1.73 6.79,-3.66 10.329999,-5.19 -1.609999,3.51 -3.519999,6.86 -5.349999,10.25 3.84,0.48 7.689999,0.95 11.509999,1.61 -3.33,2.01 -6.94,3.5 -10.339999,5.39 2.9,2.76 5.829999,5.48 8.719999,8.26 -4,-0.65 -7.969999,-1.42 -11.959999,-2.1 0.69,3.85 1.44,7.7 1.96,11.59 -2.86,-2.75 -5.47,-5.75 -8.42,-8.4 -1.53,3.54 -3.1,7.09 -5.18,10.36 -0.56,-3.85 -1,-7.7 -1.53,-11.54 -3.43,1.83 -6.83,3.72 -10.35,5.37 1.31,-3.47 3.93,-6.61 4.94,-10.03 -2.9,-1.53 -6.86,-0.86 -10.11,-1.76 -0.02,-0.21 -0.07,-0.63 -0.09,-0.84 3.06,-1.72 6.36,-2.98 9.48,-4.58 -2.68,-2.76 -5.55,-5.33 -8.13,-8.2 3.83,0.45 7.61,1.16 11.38,1.97 -0.66,-3.95 -1.41,-7.89 -1.97,-11.86 2.77,2.79 5.41,5.7 8.17,8.5 z"
     id="path64"
     inkscape:connector-curvature="0"
     style="fill:#8f8ecf" />
  <path
     fill="#8f8ecf"
     d=" M 28.62 256.91 C 29.33 253.85 30.26 250.85 31.31 247.89 C 32.33 250.83 33.47 253.71 34.74 256.55 C 37.18 254.79 39.66 253.10 42.23 251.54 C 41.36 254.46 40.44 257.36 39.52 260.26 C 42.55 260.54 45.58 260.83 48.60 261.18 C 46.08 262.92 43.48 264.55 40.83 266.09 C 43.00 268.34 45.14 270.62 47.27 272.90 C 44.17 272.45 41.07 272.00 37.97 271.57 C 38.27 274.72 38.53 277.87 38.76 281.03 C 36.65 278.62 34.52 276.22 32.35 273.86 C 30.66 276.39 28.90 278.89 27.03 281.29 C 26.81 278.22 26.72 275.15 26.69 272.08 C 23.72 272.88 20.74 273.62 17.74 274.28 C 19.57 271.83 21.41 269.39 23.29 266.98 C 20.90 265.82 18.45 264.80 16.15 263.48 C 16.19 263.26 16.27 262.80 16.31 262.58 C 18.87 261.88 21.51 261.51 24.11 261.02 C 22.83 258.26 21.61 255.48 20.50 252.64 C 23.25 253.99 25.95 255.43 28.62 256.91 Z"
     id="path68" />
  <path
     d="m 248.6377,53.89333 c 1.05,-1.21 2.08,-2.43 3.11,-3.66 0.37,1.63 0.75,3.26 1.13,4.89 1.58,-0.05 3.17,-0.1 4.76,-0.15 -1.03,1.26 -2.04,2.53 -3.06,3.8 0.96,1.36 1.91,2.72 2.88,4.09 -1.57,-0.1 -3.13,-0.14 -4.7,-0.12 -0.95,1.45 -0.89,3.34 -1.34,4.98 -0.99,-1.41 -1.99,-2.8 -3.01,-4.18 -1.57,0.72 -3.13,1.45 -4.7,2.17 0.46,-1.7 0.92,-3.39 1.39,-5.08 -1.5,-0.61 -2.99,-1.23 -4.48,-1.85 1.51,-0.76 3,-1.54 4.5,-2.34 -0.34,-1.6 -0.68,-3.21 -1.01,-4.81 1.51,0.74 3.02,1.5 4.53,2.26 z"
     id="path70"
     inkscape:connector-curvature="0"
     style="fill:#8f8ecf" />
  <path
     fill="#8f8ecf"
     d=" M 157.33 267.67 C 159.13 272.50 160.47 277.49 162.07 282.40 C 165.54 278.71 168.73 274.78 172.33 271.22 C 171.51 275.68 170.49 280.10 169.61 284.54 C 163.01 286.23 157.02 289.61 151.07 292.82 C 148.61 290.26 145.88 287.93 142.69 286.33 C 144.27 286.60 145.86 286.81 147.45 287.03 C 145.90 282.20 144.16 277.44 142.77 272.57 C 146.67 275.81 150.22 279.44 154.14 282.65 C 155.29 277.67 156.18 272.64 157.33 267.67 Z"
     id="path72" />
  <path
     d="m 176.38574,283.84191 c 2.33649,-0.80972 5.21431,-1.95468 7.53239,-2.82881 -0.6991,0.95694 -1.54214,2.16076 -2.24124,3.1269 -1.61899,-0.15642 -3.67217,-0.25208 -5.29115,-0.29809 z"
     id="path74"
     inkscape:connector-curvature="0"
     style="fill:#8f8ecf"
     sodipodi:nodetypes="cccc" />
  <path
     fill="#000000"
     d=" M 72.75 288.78 C 83.98 282.97 98.89 281.49 109.33 289.75 C 119.48 284.42 131.73 281.84 142.69 286.33 C 145.88 287.93 148.61 290.26 151.07 292.82 C 157.02 289.61 163.01 286.23 169.61 284.54 C 171.84 284.20 174.10 284.02 176.36 283.85 C 178.12 283.90 179.89 283.97 181.65 284.14 C 186.76 284.96 190.07 288.89 193.40 292.40 C 200.60 293.00 207.86 292.25 215.06 293.07 C 214.26 293.52 213.45 293.98 212.64 294.43 C 208.43 293.49 203.23 293.56 200.30 297.25 C 197.87 300.06 198.18 304.90 194.48 306.57 C 193.94 301.48 193.23 296.18 190.16 291.92 C 187.14 286.74 180.79 284.51 175.04 285.11 C 165.99 285.96 157.97 290.70 150.39 295.36 C 146.74 289.78 140.57 286.09 133.93 285.55 C 125.06 284.43 116.48 287.80 108.77 291.82 C 104.58 287.71 98.80 285.46 92.95 285.37 C 83.72 285.18 74.56 288.52 67.23 294.06 C 68.25 305.40 70.21 316.64 71.72 327.93 C 72.60 333.97 79.62 336.41 84.96 336.47 C 94.38 335.84 102.71 330.46 109.26 323.97 C 110.31 326.78 110.49 330.12 112.60 332.42 C 116.47 335.81 121.95 337.16 126.98 336.10 C 135.91 334.12 144.52 329.16 149.27 321.12 C 149.99 325.20 149.76 329.60 151.53 333.41 C 154.16 336.11 158.41 336.57 161.97 336.00 C 164.10 335.60 164.06 332.97 164.92 331.43 C 168.53 333.83 172.45 336.74 177.07 336.00 C 179.95 336.01 182.48 334.43 184.13 332.14 C 181.34 329.67 178.42 327.37 175.62 324.91 C 179.27 323.14 183.16 321.75 186.42 319.28 C 188.65 317.64 190.14 314.91 193.09 314.43 C 191.48 320.56 187.95 326.41 188.26 332.89 C 189.92 335.26 193.23 336.08 196.00 336.19 C 198.71 336.51 199.83 333.74 201.17 331.97 C 201.94 331.84 203.50 331.58 204.28 331.46 C 205.72 336.33 211.53 337.07 215.72 335.70 C 217.82 334.02 217.98 331.09 218.88 328.74 C 222.43 335.72 231.48 337.69 238.53 335.64 C 242.00 334.60 244.57 331.93 246.99 329.37 C 248.35 331.46 249.67 333.83 252.13 334.78 C 257.79 337.68 264.19 335.16 270.02 334.20 C 270.46 333.63 271.32 332.50 271.76 331.93 C 270.88 330.16 269.66 328.62 268.18 327.33 C 270.40 326.75 274.17 326.15 273.50 322.97 C 273.39 318.63 268.89 317.01 265.25 316.69 C 265.63 315.20 266.03 313.73 266.42 312.26 C 271.19 311.36 276.14 311.44 280.80 309.98 C 284.32 308.02 283.30 303.22 283.15 299.89 C 283.09 297.07 280.82 294.65 277.98 294.51 C 268.82 294.00 259.99 297.11 251.15 298.82 C 246.82 296.27 242.20 293.57 236.97 293.81 C 232.55 293.55 228.54 295.92 225.49 298.91 C 221.97 296.75 218.06 295.26 213.94 294.85 C 214.77 294.40 215.60 293.97 216.44 293.54 C 219.69 294.57 222.91 295.72 226.18 296.70 C 226.55 295.34 226.91 293.99 227.26 292.63 C 233.79 292.47 240.33 292.46 246.87 292.65 C 247.64 295.81 251.39 297.78 254.43 296.63 C 259.27 295.06 264.59 295.04 269.18 292.74 C 275.77 292.50 282.36 292.64 288.94 292.61 C 288.94 297.03 288.94 301.46 288.95 305.89 C 288.21 305.90 286.73 305.92 285.99 305.93 C 285.06 307.89 284.39 310.33 282.08 311.09 C 277.78 312.76 273.05 312.48 268.57 313.41 C 268.47 313.93 268.27 314.98 268.16 315.50 C 270.58 316.41 272.89 317.59 275.00 319.09 C 279.65 319.22 284.30 319.20 288.94 319.19 C 288.94 323.62 288.94 328.06 288.94 332.49 C 284.61 332.56 280.28 332.31 275.95 332.51 C 273.17 332.48 271.60 335.38 269.00 335.96 C 264.82 336.93 260.50 337.48 256.21 337.41 C 252.46 337.34 249.32 335.13 246.55 332.83 C 239.24 339.32 227.92 339.19 220.10 333.68 C 216.22 339.29 206.69 338.92 202.74 333.57 C 201.34 334.88 200.15 336.66 198.23 337.24 C 193.72 338.20 188.90 336.61 185.83 333.17 C 181.24 338.86 172.59 338.04 166.74 334.89 C 163.66 337.33 159.70 338.25 155.88 337.19 C 151.29 337.07 149.20 331.33 144.36 332.36 C 144.36 331.91 144.37 331.01 144.37 330.56 C 142.94 330.45 141.72 330.95 140.69 332.08 C 132.70 337.07 121.58 340.62 113.12 334.71 C 110.15 332.16 106.18 332.33 102.52 332.13 L 102.36 332.12 C 97.91 334.25 93.47 336.59 88.57 337.47 C 83.40 338.57 77.83 337.35 73.57 334.24 C 70.25 331.47 65.72 332.68 61.78 332.47 C 61.77 328.05 61.78 323.63 61.77 319.22 C 63.98 319.14 66.20 319.06 68.41 318.93 C 67.66 314.56 67.03 310.17 66.23 305.82 C 64.73 305.91 63.24 306.02 61.75 306.13 C 61.79 301.64 61.78 297.16 61.79 292.67 C 65.98 293.32 69.29 290.59 72.75 288.78 Z"
     id="path76" />
  <path
     fill="#ffffff"
     d=" M 67.23 294.06 C 74.56 288.52 83.72 285.18 92.95 285.37 C 98.80 285.46 104.58 287.71 108.77 291.82 C 116.48 287.80 125.06 284.43 133.93 285.55 C 140.57 286.09 146.74 289.78 150.39 295.36 C 157.97 290.70 165.99 285.96 175.04 285.11 C 180.79 284.51 187.14 286.74 190.16 291.92 C 193.23 296.18 193.94 301.48 194.48 306.57 C 198.18 304.90 197.87 300.06 200.30 297.25 C 203.23 293.56 208.43 293.49 212.64 294.43 C 213.45 293.98 214.26 293.52 215.06 293.07 C 214.82 292.92 214.34 292.63 214.10 292.48 C 218.48 292.61 222.87 292.63 227.26 292.63 C 226.91 293.99 226.55 295.34 226.18 296.70 C 222.91 295.72 219.69 294.57 216.44 293.54 C 215.60 293.97 214.77 294.40 213.94 294.85 C 218.06 295.26 221.97 296.75 225.49 298.91 C 228.54 295.92 232.55 293.55 236.97 293.81 C 242.20 293.57 246.82 296.27 251.15 298.82 C 259.99 297.11 268.82 294.00 277.98 294.51 C 280.82 294.65 283.09 297.07 283.15 299.89 C 283.30 303.22 284.32 308.02 280.80 309.98 C 276.14 311.44 271.19 311.36 266.42 312.26 C 266.03 313.73 265.63 315.20 265.25 316.69 C 268.89 317.01 273.39 318.63 273.50 322.97 C 274.17 326.15 270.40 326.75 268.18 327.33 C 269.66 328.62 270.88 330.16 271.76 331.93 C 271.32 332.50 270.46 333.63 270.02 334.20 C 264.19 335.16 257.79 337.68 252.13 334.78 C 249.67 333.83 248.35 331.46 246.99 329.37 C 244.57 331.93 242.00 334.60 238.53 335.64 C 231.48 337.69 222.43 335.72 218.88 328.74 C 217.98 331.09 217.82 334.02 215.72 335.70 C 211.53 337.07 205.72 336.33 204.28 331.46 C 203.50 331.58 201.94 331.84 201.17 331.97 C 199.83 333.74 198.71 336.51 196.00 336.19 C 193.23 336.08 189.92 335.26 188.26 332.89 C 187.95 326.41 191.48 320.56 193.09 314.43 C 190.14 314.91 188.65 317.64 186.42 319.28 C 183.16 321.75 179.27 323.14 175.62 324.91 C 178.42 327.37 181.34 329.67 184.13 332.14 C 182.48 334.43 179.95 336.01 177.07 336.00 C 172.45 336.74 168.53 333.83 164.92 331.43 C 164.06 332.97 164.10 335.60 161.97 336.00 C 158.41 336.57 154.16 336.11 151.53 333.41 C 149.76 329.60 149.99 325.20 149.27 321.12 C 144.52 329.16 135.91 334.12 126.98 336.10 C 121.95 337.16 116.47 335.81 112.60 332.42 C 110.49 330.12 110.31 326.78 109.26 323.97 C 102.71 330.46 94.38 335.84 84.96 336.47 C 79.62 336.41 72.60 333.97 71.72 327.93 C 70.21 316.64 68.25 305.40 67.23 294.06 Z"
     id="path78" />
  <path
     fill="#000000"
     d=" M 108.99 295.04 C 117.15 289.34 127.83 285.73 137.69 288.60 C 149.08 292.14 153.39 307.38 148.27 317.45 C 143.47 326.95 133.45 333.65 122.85 334.39 C 119.29 333.71 114.30 332.61 113.87 328.24 C 113.23 322.47 112.10 316.77 111.42 311.01 C 109.83 320.99 101.82 328.96 92.63 332.46 C 89.08 333.58 85.25 335.27 81.53 333.85 C 78.68 333.08 75.16 331.56 75.15 328.08 C 73.78 316.98 71.70 305.98 70.37 294.88 C 77.77 289.85 86.90 286.61 95.93 287.86 C 102.17 288.74 107.80 293.08 109.70 299.18 C 109.44 297.80 109.20 296.42 108.99 295.04 Z"
     id="path80" />
  <path
     fill="#000000"
     d=" M 154.01 296.00 C 161.33 291.74 169.16 286.98 177.95 287.49 C 181.18 287.39 184.27 289.09 186.30 291.53 C 190.05 296.82 191.87 303.79 190.09 310.13 C 187.08 318.10 178.40 321.50 171.06 324.37 C 173.62 327.33 176.90 329.51 179.81 332.09 C 180.06 333.75 178.21 333.46 177.14 333.71 C 171.16 334.48 166.81 329.38 162.20 326.44 C 161.75 329.12 161.25 331.80 160.59 334.44 C 158.73 334.01 156.83 333.74 155.04 333.07 C 153.46 331.15 153.60 328.38 153.11 326.04 C 152.27 318.07 150.89 310.10 151.29 302.06 C 151.47 299.85 151.67 297.02 154.01 296.00 Z"
     id="path82" />
  <path
     fill="#ffffff"
     d=" M 0.00 292.60 C 6.76 292.60 13.53 292.60 20.29 292.61 C 20.32 297.04 20.37 301.48 20.25 305.91 C 13.50 305.89 6.75 305.90 0.00 305.90 L 0.00 292.60 Z"
     id="path84" />
  <path
     fill="#000000"
     d=" M 20.51 292.62 C 27.30 292.59 34.09 292.61 40.88 292.62 C 40.85 296.58 40.81 300.54 41.16 304.49 C 40.89 304.84 40.35 305.54 40.08 305.89 C 33.52 305.90 26.95 305.93 20.38 305.88 C 20.49 301.45 20.48 297.03 20.51 292.62 Z"
     id="path86" />
  <path
     fill="#ffffff"
     d=" M 40.88 292.62 C 47.85 292.61 54.82 292.56 61.79 292.67 C 61.78 297.16 61.79 301.64 61.75 306.13 C 63.24 306.02 64.73 305.91 66.23 305.82 C 67.03 310.17 67.66 314.56 68.41 318.93 C 66.20 319.06 63.98 319.14 61.77 319.22 C 61.78 323.63 61.77 328.05 61.78 332.47 C 54.82 332.52 47.85 332.48 40.88 332.47 C 40.88 328.02 40.88 323.58 40.88 319.13 C 34.05 319.15 27.22 319.11 20.38 319.16 C 20.28 314.73 20.28 310.30 20.38 305.88 C 26.95 305.93 33.52 305.90 40.08 305.89 C 40.35 305.54 40.89 304.84 41.16 304.49 C 40.81 300.54 40.85 296.58 40.88 292.62 Z"
     id="path88" />
  <path
     fill="#ffffff"
     d=" M 246.87 292.65 C 254.31 292.57 261.75 292.47 269.18 292.74 C 264.59 295.04 259.27 295.06 254.43 296.63 C 251.39 297.78 247.64 295.81 246.87 292.65 Z"
     id="path90" />
  <path
     fill="#ffffff"
     d=" M 288.94 292.61 C 295.71 292.60 302.48 292.60 309.24 292.61 C 309.40 297.04 309.44 301.47 309.40 305.90 C 302.59 305.90 295.78 305.90 288.97 305.90 C 288.97 310.28 288.97 314.65 288.97 319.03 C 284.31 319.03 279.66 319.05 275.00 319.09 C 272.89 317.59 270.58 316.41 268.16 315.50 C 268.27 314.98 268.47 313.93 268.57 313.41 C 273.05 312.48 277.78 312.76 282.08 311.09 C 284.39 310.33 285.06 307.89 285.99 305.93 C 286.73 305.92 288.21 305.90 288.95 305.89 C 288.94 301.46 288.94 297.03 288.94 292.61 Z"
     id="path92" />
  <path
     fill="#8f8ecf"
     d=" M 309.24 292.61 L 309.68 292.61 C 309.58 297.04 309.57 301.47 309.57 305.90 C 309.56 310.31 309.58 314.73 309.59 319.14 C 309.57 323.59 309.57 328.04 309.68 332.49 L 309.25 332.49 C 309.43 328.07 309.45 323.65 309.37 319.23 C 302.56 319.11 295.75 319.17 288.94 319.19 C 284.30 319.20 279.65 319.22 275.00 319.09 C 279.66 319.05 284.31 319.03 288.97 319.03 C 295.77 319.03 302.57 319.06 309.37 319.01 C 309.39 314.64 309.38 310.27 309.40 305.90 C 309.44 301.47 309.40 297.04 309.24 292.61 Z"
     id="path94" />
  <path
     fill="#000000"
     d=" M 309.68 292.61 C 316.53 292.60 323.39 292.60 330.24 292.62 C 330.25 297.02 330.24 301.43 330.25 305.83 C 323.36 305.97 316.46 305.88 309.57 305.90 C 309.57 301.47 309.58 297.04 309.68 292.61 Z"
     id="path96" />
  <path
     fill="#ffffff"
     d=" M 330.24 292.62 C 336.83 292.66 343.42 292.44 350.00 292.72 L 350.00 305.90 C 343.44 305.90 336.88 305.90 330.32 305.90 C 330.31 310.29 330.31 314.69 330.32 319.09 C 336.88 319.07 343.44 319.08 350.00 319.08 L 350.00 332.49 C 343.41 332.49 336.83 332.50 330.24 332.47 C 330.25 328.04 330.24 323.62 330.25 319.20 C 323.37 319.08 316.48 319.15 309.59 319.14 C 309.58 314.73 309.56 310.31 309.57 305.90 C 316.46 305.88 323.36 305.97 330.25 305.83 C 330.24 301.43 330.25 297.02 330.24 292.62 Z"
     id="path98" />
  <path
     fill="#000000"
     d=" M 199.61 306.08 C 201.18 302.36 202.30 297.07 206.86 296.06 C 212.74 295.98 218.57 297.82 223.62 300.80 C 222.98 305.41 221.01 309.67 219.73 314.12 C 217.52 320.38 215.96 326.85 214.20 333.24 C 212.84 335.15 210.35 333.66 208.54 333.46 C 208.49 331.93 208.45 330.40 208.42 328.87 C 205.11 329.31 201.65 329.27 198.52 330.55 C 197.59 331.61 197.19 333.18 195.90 333.89 C 194.30 333.68 192.05 333.75 191.33 331.97 C 192.89 323.01 196.57 314.60 199.61 306.08 Z"
     id="path100" />
  <path
     fill="#000000"
     d=" M 230.62 297.81 C 236.84 293.39 245.16 297.14 250.09 301.83 C 258.60 299.46 267.18 296.89 276.07 296.53 C 277.42 296.49 279.14 296.81 279.55 298.33 C 280.37 301.37 280.57 304.76 279.57 307.78 C 274.58 309.93 268.92 309.37 263.68 310.56 C 262.90 313.57 261.97 316.54 260.96 319.48 C 263.68 319.76 267.83 317.72 269.48 320.81 C 269.88 321.99 269.88 323.25 270.04 324.49 C 266.47 325.42 262.83 326.03 259.16 326.33 C 258.96 327.16 258.57 328.82 258.37 329.65 C 261.86 329.35 267.41 327.54 268.47 332.39 C 263.06 333.18 256.25 335.79 251.70 331.55 C 251.22 325.69 250.81 319.79 250.46 313.91 C 249.29 316.24 248.51 319.04 246.21 320.55 C 244.11 320.05 241.73 319.23 240.65 317.19 C 240.01 314.24 240.74 311.18 240.21 308.22 C 238.07 307.23 236.88 309.31 235.78 310.74 C 232.38 315.49 229.83 321.12 229.72 327.04 C 229.61 328.83 230.61 330.43 231.78 331.71 C 235.13 330.01 238.55 326.64 242.58 328.65 C 243.10 330.35 241.40 331.42 240.25 332.28 C 235.86 335.26 229.93 334.85 225.45 332.31 C 221.09 329.52 220.60 323.66 220.71 318.96 C 221.50 311.15 224.25 302.82 230.62 297.81 Z"
     id="path102" />
  <path
     fill="#ffffff"
     d=" M 166.64 306.35 C 170.76 304.75 175.69 303.01 179.79 305.62 C 177.96 313.01 170.22 316.77 163.64 319.17 C 164.29 315.75 165.17 312.38 166.17 309.05 C 166.28 308.37 166.52 307.02 166.64 306.35 Z"
     id="path104" />
  <path
     fill="#ffffff"
     d=" M 87.85 305.43 C 90.76 304.92 94.29 304.08 96.77 306.22 C 99.62 309.04 98.97 313.56 97.65 316.97 C 95.44 323.09 89.94 327.44 83.92 329.49 C 84.84 321.41 86.38 313.42 87.85 305.43 Z"
     id="path106" />
  <path
     fill="#ffffff"
     d=" M 126.91 305.28 C 129.79 304.91 133.32 304.09 135.62 306.40 C 138.21 308.79 137.86 312.78 136.83 315.83 C 134.82 322.47 129.08 327.48 122.55 329.48 C 123.80 321.38 124.83 313.22 126.91 305.28 Z"
     id="path108" />
  <path
     fill="#000000"
     d=" M 0.00 305.90 C 6.75 305.90 13.50 305.89 20.25 305.91 C 20.13 310.29 20.12 314.68 20.25 319.07 C 13.50 319.09 6.75 319.08 0.00 319.08 L 0.00 305.90 Z"
     id="path110" />
  <path
     fill="#000000"
     d=" M 40.95 308.83 C 40.65 307.80 40.78 305.91 42.23 305.87 C 48.70 305.89 55.17 305.92 61.64 305.89 C 61.85 310.28 61.76 314.68 61.76 319.08 C 54.88 319.11 47.99 319.01 41.10 319.14 C 41.12 315.70 41.17 312.26 40.95 308.83 Z"
     id="path112" />
  <path
     fill="#000000"
     d=" M 169.66 307.59 C 172.02 306.92 174.41 306.36 176.81 305.88 C 174.92 309.58 171.79 312.38 168.18 314.35 C 168.56 312.07 169.11 309.83 169.66 307.59 Z"
     id="path114" />
  <path
     fill="#000000"
     d=" M 288.97 305.90 C 295.78 305.90 302.59 305.90 309.40 305.90 C 309.38 310.27 309.39 314.64 309.37 319.01 C 302.57 319.06 295.77 319.03 288.97 319.03 C 288.97 314.65 288.97 310.28 288.97 305.90 Z"
     id="path116" />
  <path
     fill="#000000"
     d=" M 330.32 305.90 C 336.88 305.90 343.44 305.90 350.00 305.90 L 350.00 319.08 C 343.44 319.08 336.88 319.07 330.32 319.09 C 330.31 314.69 330.31 310.29 330.32 305.90 Z"
     id="path118" />
  <path
     fill="#000000"
     d=" M 90.91 307.57 C 91.61 305.91 93.36 307.40 94.59 307.44 C 96.81 312.52 94.31 317.87 91.13 321.88 C 90.45 321.85 89.09 321.80 88.41 321.77 C 89.45 317.08 90.11 312.31 90.91 307.57 Z"
     id="path120" />
  <path
     fill="#000000"
     d=" M 129.87 306.59 C 131.34 307.05 133.41 306.97 133.82 308.89 C 135.20 313.20 133.17 317.98 130.25 321.21 C 129.46 322.15 128.46 322.34 127.25 321.80 C 128.25 316.75 128.81 311.63 129.87 306.59 Z"
     id="path122" />
  <path
     fill="#ffffff"
     d=" M 209.90 310.46 C 209.99 310.47 210.15 310.49 210.24 310.49 C 209.13 314.96 209.31 319.62 208.51 324.14 C 206.11 324.25 203.72 324.37 201.33 324.48 C 204.28 319.86 206.57 314.83 209.90 310.46 Z"
     id="path124" />
  <path
     fill="#000000"
     d=" M 233.05 327.67 C 233.24 323.93 233.40 319.21 236.99 317.02 C 238.85 321.11 243.51 322.52 247.69 322.43 C 247.74 324.60 247.82 326.76 247.80 328.93 C 246.12 328.18 244.59 327.17 242.92 326.41 C 239.61 325.32 236.19 326.60 233.05 327.67 Z"
     id="path126" />
  <path
     fill="#ffffff"
     d=" M 0.00 319.08 C 6.75 319.08 13.50 319.09 20.25 319.07 C 20.37 323.54 20.32 328.01 20.29 332.48 C 13.53 332.39 6.75 332.72 0.00 332.30 L 0.00 319.08 Z"
     id="path128" />
  <path
     fill="#000000"
     d=" M 20.38 319.16 C 27.22 319.11 34.05 319.15 40.88 319.13 C 40.88 323.58 40.88 328.02 40.88 332.47 C 34.09 332.49 27.31 332.50 20.52 332.48 C 20.48 328.04 20.49 323.60 20.38 319.16 Z"
     id="path130" />
  <path
     fill="#000000"
     d=" M 309.59 319.14 C 316.48 319.15 323.37 319.08 330.25 319.20 C 330.24 323.62 330.25 328.04 330.24 332.47 C 323.39 332.49 316.53 332.50 309.68 332.49 C 309.57 328.04 309.57 323.59 309.59 319.14 Z"
     id="path132" />
  <path
     fill="#ffffff"
     d=" M 288.94 319.19 C 295.75 319.17 302.56 319.11 309.37 319.23 C 309.45 323.65 309.43 328.07 309.25 332.49 C 302.48 332.49 295.71 332.48 288.94 332.49 C 288.94 328.06 288.94 323.62 288.94 319.19 Z"
     id="path134" />
  <path
     fill="#ffffff"
     d=" M 178.73 325.11 C 181.01 324.14 183.26 323.09 185.50 322.02 C 185.51 324.99 185.51 327.97 185.49 330.94 C 183.25 328.97 180.99 327.04 178.73 325.11 Z"
     id="path136" />
  <path
     fill="#ffffff"
     d=" M 140.69 332.08 C 141.72 330.95 142.94 330.45 144.37 330.56 C 144.37 331.01 144.36 331.91 144.36 332.36 C 143.05 332.97 141.83 332.87 140.69 332.08 Z"
     id="path138" />
  <path
     fill="#8f8ecf"
     d=" M 102.36 332.12 L 102.52 332.13 L 102.51 332.30 C 102.47 332.25 102.40 332.17 102.36 332.12 Z"
     id="path140" />
  <a
     id="a3936" />
  <path
     d="m 110.62,41.615001 c 1.21,-2.57 2.51,-5.1 3.95,-7.55 0.49,2.8 0.88,5.61 1.26,8.43 2.58,-1.41 5.19,-2.77 7.83,-4.07 -1.39,2.58 -2.74,5.18 -4.05,7.8 2.72,0.36 5.43,0.77 8.11,1.34 -2.33,1.34 -4.83,2.43 -7.05,3.97 1.82,2.18 3.99,4.04 6.09,5.95 -2.92,-0.37 -5.83,-0.83 -8.73,-1.36 0.43,2.75 0.85,5.49 1.23,8.24 -2.07,-1.9 -4.11,-3.85 -6.1,-5.85 -1.09,2.59 -2.42,5.07 -3.95,7.42 -0.4,-2.7 -0.75,-5.4 -1.06,-8.11 -2.61,1.18 -5.19,2.39 -7.7,3.76 1.25,-2.58 2.49,-5.18 3.77,-7.75 -2.66,-0.33 -5.309999,-0.72 -7.939999,-1.25 2.3,-1.46 4.689999,-2.79 7.199999,-3.86 -2.06,-2 -4.069999,-4.05 -6.019999,-6.15 2.809999,0.42 5.599999,0.89 8.399999,1.38 -0.47,-2.8 -0.87,-5.6 -1.14,-8.42 1.97,2.02 3.93,4.06 5.9,6.08 z"
     id="path50-1"
     inkscape:connector-curvature="0"
     style="fill:#8f8ecf" />
  <text
     xml:space="preserve"
     style="font-size:167.99397278px;font-style:normal;font-weight:normal;line-height:125%;letter-spacing:0px;word-spacing:0px;fill:#000000;fill-opacity:1;stroke:none;font-family:arial;-inkscape-font-specification:arial"
     id="text3123-0"
     sodipodi:linespacing="125%"
     y="175.28337"
     x="65.693153"
     transform="matrix(0.98898522,-0.26332796,0.12414784,0.97808175,0,0)"
     inkscape:transform-center-x="27.585884"
     inkscape:transform-center-y="14.306663"><tspan
       sodipodi:role="line"
       id="tspan3125-6"
       x="65.693153"
       y="175.28337"
       style="font-size:167.99397278px;fill:#e37818;fill-opacity:1;font-family:Andy;-inkscape-font-specification:Andy">X</tspan></text>
  <text
     xml:space="preserve"
     style="font-size:164.93093872px;font-style:normal;font-weight:normal;line-height:125%;letter-spacing:0px;word-spacing:0px;fill:#000000;fill-opacity:1;stroke:none;font-family:arial;-inkscape-font-specification:arial"
     id="text3123-09"
     sodipodi:linespacing="125%"
     y="145.28525"
     x="145.91393"
     transform="matrix(1.0000729,-0.23131882,0.12186866,0.97173864,0,0)"><tspan
       sodipodi:role="line"
       id="tspan3125-8"
       x="145.91393"
       y="145.28525"
       style="font-size:164.93093872px;font-style:normal;font-variant:normal;font-weight:bold;font-stretch:normal;fill:#e37818;fill-opacity:1;font-family:Andy;-inkscape-font-specification:Andy Bold">L</tspan></text>
  <text
     xml:space="preserve"
     style="font-size:165.92308044px;font-style:normal;font-weight:normal;line-height:125%;letter-spacing:0px;word-spacing:0px;fill:#000000;fill-opacity:1;stroke:none;font-family:arial;-inkscape-font-specification:arial"
     id="text3123-0-1"
     sodipodi:linespacing="125%"
     y="206.46271"
     x="-7.8232183"
     transform="matrix(1.0208446,-0.18822488,0.09138566,0.9627312,0,0)"
     inkscape:transform-center-y="-5.9696294"
     inkscape:transform-center-x="-2.671832"><tspan
       sodipodi:role="line"
       id="tspan3125-6-8"
       x="-7.8232183"
       y="206.46271"
       style="font-size:165.92308044px;fill:#e37818;fill-opacity:1;font-family:Andy;-inkscape-font-specification:Andy">X</tspan></text>
</svg>
